<svg xmlns="http://www.w3.org/2000/svg" viewBox="0 0 500 500"><g id="freepik--Bird--inject-18"><g style="opacity:0.30000000000000004"><path d="M216.47,290l-46.33,53.38c7.31,1.79,14.94-.19,22.2-2.15a110,110,0,0,0,17.06-5.64,54.93,54.93,0,0,0,22.45-19A49,49,0,0,0,261.68,311Z"></path></g><path d="M276.32,324.42c-2.31-5.91-12.4-10.53-19.58-13.5l-71-58.5a94.12,94.12,0,0,1-23.9,78.26,94.09,94.09,0,0,1-76.59,28.77c13.1,13.24,35.64,15.77,51.35,5.77a135.48,135.48,0,0,1-73.79,23.19c4.54,9.37,15.76,14,26.16,13.71s20.26-4.43,29.83-8.53L72.85,422.5a4.1,4.1,0,0,0-1.9,2.71c-.62,3.42,3.64,4.59,6.78,4.49,14.56-.48,31.37-4,42.78-13-9.67,12.51-24.25,24.61-36.82,37.78A3.64,3.64,0,0,0,86,460.58c9.48.95,23.47-3.39,30-8.47,5.32-4.16,13.51-8.63,18.8-17.57,0,0-18.17,39.53-18.8,41.22,15.86,2.93,30.07-6.64,40.58-29-.93,8.15-2.41,22-3.43,33.43,21.5-8.28,31.82-30.43,33.92-53.38-1.17,12.8,1,37.52,1,37.52,17.11-10.52,28.8-35.61,23.81-56.05,0-.85,3.27,18.21,5.72,23a11.82,11.82,0,0,0,4.76,4.62c4.47,1.91,8.28-.88,10.67-3.17,8.72-8.32,5.59-33.24,5.59-33.24s3.54,9.51,8.36,8.9,8.83-4.2,11.17-8.45c2.71-4.92,2.68-15.7,2-19.49a26.46,26.46,0,0,0-5.22-11.5c6.67,4.65,13.41,4.43,18.8-1.65s2-17.17-3.4-23.23C275.4,340.24,279.63,332.88,276.32,324.42Z" style="fill:#e0e0e0"></path><path d="M220.86,312.13a2.32,2.32,0,0,1,.58.17l1.62.6c1.41.52,3.43,1.33,5.91,2.38A131.3,131.3,0,0,1,247.58,325a120.34,120.34,0,0,1,16.59,12.89c2,1.83,3.52,3.35,4.56,4.44l1.2,1.25a2.84,2.84,0,0,1,.39.46,3.11,3.11,0,0,1-.47-.39l-1.26-1.18c-1.08-1-2.68-2.51-4.67-4.31a132.34,132.34,0,0,0-16.63-12.72,144.53,144.53,0,0,0-18.47-9.84c-2.45-1.1-4.45-2-5.83-2.54l-1.59-.68A2.94,2.94,0,0,1,220.86,312.13Z" style="fill:#263238"></path><path d="M165.31,344.88a3.46,3.46,0,0,1-.28.68c-.23.48-.52,1.11-.9,1.89s-.88,1.83-1.5,3-1.29,2.45-2.14,3.84-1.72,2.94-2.79,4.53-2.21,3.29-3.46,5.05a110.2,110.2,0,0,1-9,10.75A101.73,101.73,0,0,1,134.85,384c-1.73,1.29-3.35,2.54-5,3.57-.8.53-1.55,1.06-2.31,1.52l-2.2,1.31c-1.38.87-2.71,1.51-3.85,2.12s-2.15,1.08-3,1.45l-1.91.84a5.74,5.74,0,0,1-.68.27,3.38,3.38,0,0,1,.63-.36l1.88-.94c.82-.39,1.81-.88,2.93-1.52s2.44-1.29,3.8-2.17l2.17-1.34c.76-.46,1.5-1,2.29-1.54,1.6-1,3.21-2.3,4.92-3.59a108.09,108.09,0,0,0,10.33-9.36,115.58,115.58,0,0,0,9-10.68c1.25-1.74,2.45-3.38,3.48-5s2-3.1,2.84-4.49,1.55-2.67,2.19-3.79,1.17-2.1,1.58-2.91l1-1.85A5.92,5.92,0,0,1,165.31,344.88Z" style="fill:#263238"></path><path d="M169,344.21s0,.08,0,.22l-.18.65c-.19.61-.44,1.43-.75,2.47s-.74,2.38-1.29,3.87-1.11,3.22-1.89,5.06c-.37.93-.76,1.91-1.17,2.92s-.9,2-1.38,3.12c-.92,2.16-2.07,4.41-3.24,6.78a162.58,162.58,0,0,1-8.72,14.86,162.81,162.81,0,0,1-10.4,13.74c-1.75,2-3.39,3.9-5,5.59-.82.85-1.58,1.69-2.36,2.46l-2.25,2.2c-1.41,1.42-2.78,2.6-4,3.68s-2.21,2-3.08,2.66l-2,1.64a5.61,5.61,0,0,1-.71.54s0-.06.15-.17l.5-.45,1.93-1.71c.84-.73,1.87-1.63,3-2.73s2.51-2.29,3.9-3.73l2.21-2.21c.77-.78,1.53-1.62,2.33-2.48,1.63-1.69,3.25-3.61,5-5.6a169.57,169.57,0,0,0,10.34-13.72,169.32,169.32,0,0,0,8.73-14.79c1.18-2.36,2.33-4.59,3.27-6.74.48-1.07,1-2.09,1.4-3.1s.82-2,1.2-2.9c.8-1.83,1.39-3.54,2-5s1-2.77,1.37-3.84l.84-2.43c.09-.25.16-.46.23-.63A.74.74,0,0,1,169,344.21Z" style="fill:#263238"></path><path d="M195.27,330a4.27,4.27,0,0,1,.65.53l1.8,1.62c.78.7,1.73,1.56,2.78,2.62s2.29,2.22,3.55,3.61,2.69,2.87,4.12,4.56,2.93,3.5,4.48,5.43a155.51,155.51,0,0,1,9.23,13.26c3,4.88,5.55,9.71,7.71,14.18,1,2.26,2,4.39,2.88,6.43s1.62,3.95,2.29,5.7,1.22,3.36,1.71,4.77.89,2.62,1.19,3.63.52,1.74.7,2.31a7.07,7.07,0,0,1,.21.82,4.52,4.52,0,0,1-.31-.79c-.2-.56-.46-1.32-.79-2.28s-.74-2.21-1.27-3.6-1.07-3-1.78-4.73-1.44-3.65-2.34-5.66-1.87-4.15-2.92-6.39c-2.18-4.44-4.74-9.25-7.73-14.12s-6.15-9.31-9.15-13.23c-1.54-1.94-3-3.8-4.44-5.45s-2.79-3.21-4.06-4.58-2.46-2.59-3.49-3.66-1.95-2-2.71-2.69l-1.73-1.68A6.4,6.4,0,0,1,195.27,330Z" style="fill:#263238"></path><path d="M174.27,341a.79.79,0,0,1,0,.27q0,.3-.09.78c-.1.73-.23,1.74-.4,3s-.4,2.92-.75,4.76-.66,4-1.19,6.28c-.25,1.15-.51,2.36-.79,3.63s-.63,2.55-1,3.9c-.64,2.71-1.51,5.56-2.38,8.56-1.86,6-4.16,12.47-7,19.12a201.75,201.75,0,0,1-9,18.25c-1.57,2.7-3,5.29-4.55,7.63-.75,1.17-1.44,2.32-2.16,3.39l-2.09,3.08c-1.3,2-2.6,3.67-3.71,5.19s-2.09,2.8-2.93,3.83l-1.91,2.37-.5.61c-.12.13-.18.2-.19.19a1,1,0,0,1,.15-.23l.46-.64,1.83-2.43c.81-1,1.79-2.33,2.86-3.87s2.36-3.25,3.64-5.23l2.05-3.09c.72-1.07,1.4-2.23,2.13-3.4,1.5-2.34,2.95-4.93,4.51-7.64,3-5.47,6.09-11.6,9-18.22s5.12-13.1,7-19.05c.88-3,1.76-5.83,2.42-8.52.34-1.35.71-2.64,1-3.9s.56-2.46.82-3.61c.55-2.3.9-4.41,1.27-6.25s.63-3.43.83-4.74.37-2.27.49-3l.15-.78A.85.85,0,0,1,174.27,341Z" style="fill:#263238"></path><path d="M179,340.25a1,1,0,0,1,0,.3c0,.23,0,.53,0,.9v3.45c0,1.5,0,3.34-.11,5.47s-.13,4.55-.34,7.22c-.09,1.34-.18,2.75-.28,4.2s-.27,3-.42,4.55c-.26,3.14-.71,6.48-1.15,10-1,7-2.32,14.71-4.12,22.7s-4,15.49-6.14,22.24c-1.13,3.36-2.18,6.57-3.31,9.52-.55,1.47-1,2.91-1.6,4.27S160.5,437.73,160,439c-1,2.5-2,4.7-2.83,6.66s-1.62,3.61-2.27,5l-1.5,3.11-.41.81c-.09.18-.14.27-.15.26a1.43,1.43,0,0,1,.11-.29c.09-.21.2-.48.35-.82l1.41-3.15c.63-1.36,1.38-3,2.19-5s1.81-4.18,2.76-6.68c.49-1.25,1-2.55,1.54-3.91s1-2.8,1.57-4.28c1.11-2.95,2.13-6.15,3.25-9.51,2.13-6.76,4.25-14.25,6.09-22.22s3.15-15.64,4.16-22.64c.45-3.51.91-6.85,1.19-10,.16-1.57.34-3.08.45-4.54s.21-2.85.31-4.19c.23-2.67.3-5.09.42-7.22s.17-4,.2-5.45.07-2.63.09-3.45c0-.37,0-.67,0-.9A1.16,1.16,0,0,1,179,340.25Z" style="fill:#263238"></path><path d="M184.69,334.31s0,.09.07.27.1.47.18.8c.14.74.35,1.77.61,3.08s.55,3,.85,4.9l.48,3.07c.14,1.09.29,2.25.44,3.46.65,4.84,1.15,10.63,1.57,17.08s.59,13.54.58,21-.32,14.55-.71,21-1,12.24-1.59,17.08c-.28,2.43-.6,4.61-.89,6.53s-.53,3.57-.79,4.91-.43,2.35-.57,3.09c-.07.33-.12.6-.16.81a1.59,1.59,0,0,1-.07.26.69.69,0,0,1,0-.27c0-.22.06-.48.11-.81.11-.75.27-1.79.47-3.11s.45-3,.7-4.92.56-4.1.81-6.53c.59-4.84,1-10.63,1.48-17.07s.64-13.52.67-21-.18-14.53-.53-21-.87-12.22-1.46-17.06c-.15-1.21-.28-2.36-.41-3.45s-.3-2.11-.44-3.07c-.27-1.92-.5-3.58-.76-4.92s-.39-2.35-.52-3.09l-.12-.81A1.18,1.18,0,0,1,184.69,334.31Z" style="fill:#263238"></path><path d="M188.48,332a6,6,0,0,1,.42.75l1.12,2.19c1,1.91,2.31,4.69,3.9,8.17s3.4,7.65,5.3,12.33,3.79,9.92,5.58,15.47,3.23,10.93,4.38,15.85c.51,2.48,1.07,4.82,1.43,7,.19,1.11.38,2.18.56,3.2s.28,2,.42,3c.29,1.89.44,3.61.59,5.12.07.76.14,1.46.2,2.11s.07,1.24.1,1.78c0,1,.08,1.85.11,2.45a4.65,4.65,0,0,1,0,.86,7.21,7.21,0,0,1-.1-.85c-.06-.61-.13-1.42-.21-2.45-.05-.54-.09-1.13-.14-1.77s-.16-1.35-.25-2.1c-.18-1.5-.35-3.22-.67-5.1-.14-.95-.29-1.93-.45-3s-.38-2.09-.59-3.19c-.38-2.21-.94-4.54-1.47-7-1.17-4.9-2.64-10.26-4.4-15.8s-3.71-10.75-5.54-15.45-3.62-8.88-5.19-12.36-2.83-6.3-3.74-8.23c-.44-.94-.78-1.68-1-2.24A4.91,4.91,0,0,1,188.48,332Z" style="fill:#263238"></path><path d="M162.23,344.32a9.31,9.31,0,0,1-1,1.26c-.69.79-1.74,1.9-3.06,3.23a111,111,0,0,1-23.3,17.85c-1.63.94-3,1.66-3.92,2.12a10.36,10.36,0,0,1-1.49.69,10.23,10.23,0,0,1,1.39-.86c.92-.52,2.23-1.29,3.83-2.26a132.73,132.73,0,0,0,23.23-17.8c1.35-1.3,2.44-2.36,3.18-3.11A10.32,10.32,0,0,1,162.23,344.32Z" style="fill:#263238"></path><path d="M184.68,242.11l32.57,36.09c2.85,3.16,5.78,6.46,7,10.53,1.11,3.63.77,7.53.11,11.26-1.62,9.23-5.33,18.37-12.13,24.81s-17,9.68-25.88,6.55a26,26,0,0,1-37.6,10.39s24.8-19.77,30.48-37.91,5.94-20.38,6.79-36S184.68,242.11,184.68,242.11Z" style="fill:#fff"></path><path d="M85.25,359.45c.25-.74,2.76-.38,7.12-.65a76.24,76.24,0,0,0,18.13-3.47c3.76-1.14,7.84-2.6,12.15-4.37,2.15-.88,4.36-1.84,6.61-2.89q1.68-.78,3.39-1.62l1.69-.86.78-.41.82-.48a96.9,96.9,0,0,0,25.47-21.09,95.14,95.14,0,0,0,16.81-28.47,102.11,102.11,0,0,0,6-26.67,140.49,140.49,0,0,0,.31-18.8c-.05-1.13-.08-2.13-.08-3s0-1.62,0-2.24c.06-1.24.26-1.94.6-2s.84.44,1.44,1.55c.3.55.64,1.25,1,2.09s.67,1.83,1,2.95a71.67,71.67,0,0,1,3.06,19.72,90.16,90.16,0,0,1-4.25,29.57,93.22,93.22,0,0,1-18,32.12,94.26,94.26,0,0,1-28.88,22.79l-.94.49-1,.48-1.91.84c-1.25.53-2.5,1-3.73,1.52q-3.69,1.44-7.23,2.58a105.16,105.16,0,0,1-13.4,3.41c-8.34,1.55-15.46,1.42-20.2.35S85,360.05,85.25,359.45Z" style="fill:#263238"></path><path d="M213.88,325.54a1,1,0,0,1,.59.19,11.06,11.06,0,0,1,1.47,1c1.23.93,2.92,2.38,4.93,4.24,4,3.71,9.41,9.07,15.11,15.2s10.61,11.91,14,16.2c1.72,2.14,3.05,3.92,4,5.15.42.59.76,1.06,1,1.44a2.43,2.43,0,0,1,.33.52,3.65,3.65,0,0,1-.41-.46l-1.1-1.38c-1-1.19-2.34-2.93-4.1-5-3.48-4.23-8.44-10-14.13-16.08s-11-11.52-15-15.29c-2-1.89-3.62-3.38-4.8-4.35a15.6,15.6,0,0,0-1.4-1.06A2.76,2.76,0,0,0,213.88,325.54Z" style="fill:#263238"></path><path d="M388,112.35c-7.27,3.54-20.23,9.39-22.39,9.69,16.43-6.63,23.39-32.95,18-46.53,0,0-14.09,15.55-20.21,19.74,11.76-14.68,17.05-32.16,8-50.94C362.78,60.89,349.67,75.85,346.81,80c2.25-3.83,11.44-22.37,4.1-41.57-1.63-4.27-7.63-10-11.61-12.32-3-1.78-8.78-5-12.23-4.48,3.54,19.7,3.76,36.41-3.09,51.79,0,0,0-18.16-5-30.91-4.26-10.8-19.73-20.69-31.17-22.7C296,39.19,303.24,60.41,300,81.18c-1.29-10.64-4.88-19.3-10.22-28.6s-18-18.46-28.64-16.85a108,108,0,0,1,19.78,68.6c-3-8.13-6.06-16.44-11.53-23.16s-13.89-11.69-22.5-10.74c10.79,14,20.63,29.79,22,47.41,1.14,14.54-3.68,29-11,41.65S240.71,183,231,193.91l83.63,60.43a15.18,15.18,0,0,0,20.91-17.87c5.08,2.94,11.52,3.79,16.92,1.48s9.39-8,8.93-13.87S355.46,213,349.6,213.43c6.23-.71,12.51-2.9,16.92-7.36s7-10.11,4.58-15.89c-1.52-3.93-6.18-3.84-11-3.09,0,0,6.25-3.7,11.39-7.54C387.6,167,390.2,152,386.49,144.7c-1.93-.23-9.08,2.22-19.07,5.78C380.84,145.65,392.53,125.67,388,112.35Z" style="fill:#e0e0e0"></path><path d="M274.79,157.65a2.94,2.94,0,0,1,.14-.55l.49-1.56c.44-1.34,1-3.3,1.76-5.72a121.61,121.61,0,0,0,4.13-19.29A95.44,95.44,0,0,0,282,119.7c0-1.67,0-3.26-.15-4.74s-.21-2.86-.33-4.11c-.28-2.51-.56-4.54-.81-5.93-.11-.66-.19-1.19-.26-1.61a4,4,0,0,1-.06-.57,1.71,1.71,0,0,1,.16.55c.1.42.21.94.36,1.59.31,1.38.65,3.41,1,5.92.14,1.26.32,2.64.39,4.14s.17,3.08.2,4.76a88,88,0,0,1-.61,10.9,109.17,109.17,0,0,1-4.29,19.32c-.76,2.42-1.42,4.36-1.92,5.69l-.58,1.52A2,2,0,0,1,274.79,157.65Z" style="fill:#263238"></path><path d="M335.52,236.47a4,4,0,0,1-.61-.07l-1.72-.29c-.75-.13-1.66-.3-2.71-.54s-2.25-.47-3.57-.8c-2.64-.61-5.76-1.46-9.2-2.47s-7.18-2.27-11.07-3.67c-7.78-2.82-14.68-5.76-19.61-8-2.47-1.12-4.46-2-5.82-2.72l-1.56-.77a2.76,2.76,0,0,1-.53-.31,3.28,3.28,0,0,1,.57.21l1.61.69,5.88,2.56c5,2.15,11.87,5,19.64,7.84,3.88,1.4,7.62,2.64,11,3.7s6.52,1.92,9.15,2.58c1.31.35,2.5.62,3.54.87s1.95.46,2.69.62l1.7.39A2.38,2.38,0,0,1,335.52,236.47Z" style="fill:#263238"></path><path d="M352.07,213a3.1,3.1,0,0,1-.71.11l-2.05.22c-1.78.19-4.37.38-7.56.54s-7,.24-11.25.21-8.89-.26-13.76-.65-9.5-1-13.69-1.64-7.93-1.37-11.06-2.07-5.64-1.3-7.37-1.78l-2-.55a3.31,3.31,0,0,1-.68-.23,3.61,3.61,0,0,1,.71.13l2,.46c1.74.41,4.27,1,7.4,1.61s6.88,1.32,11.05,2,8.8,1.17,13.66,1.59,9.5.6,13.72.69,8,0,11.23-.1,5.78-.25,7.56-.37l2.06-.12A3,3,0,0,1,352.07,213Z" style="fill:#263238"></path><path d="M363.5,186.39a.8.8,0,0,1-.22.07l-.66.16-2.55.56c-1.11.25-2.47.53-4.05.81s-3.39.65-5.39,1c-4,.68-8.79,1.33-14.12,1.92s-11.22,1-17.41,1.25-12.09.19-17.45,0-10.19-.49-14.22-.87c-2-.16-3.85-.39-5.45-.56s-3-.35-4.1-.51l-2.58-.37-.67-.11a.79.79,0,0,1-.23-.06h.23l.68.06,2.6.28c1.12.13,2.5.28,4.1.42s3.43.35,5.45.48c4,.33,8.85.6,14.2.76s11.25.14,17.42-.07,12.05-.69,17.38-1.21,10.11-1.17,14.11-1.8c2-.29,3.81-.62,5.39-.88s3-.51,4.07-.73l2.57-.46.67-.11Z" style="fill:#263238"></path><path d="M369.12,149.66s-.07.06-.22.14l-.67.37-2.61,1.36c-2.26,1.2-5.58,2.81-9.73,4.73-2.08.93-4.35,2-6.84,3l-3.85,1.59-4.12,1.59c-5.65,2.12-11.95,4.25-18.66,6.15a280.55,280.55,0,0,1-34.93,7.28c-4.52.65-8.19,1.12-10.73,1.39l-2.92.31-.76.07a1.38,1.38,0,0,1-.27,0,1,1,0,0,1,.26-.06l.76-.12,2.91-.41c2.53-.33,6.18-.86,10.69-1.56a303,303,0,0,0,34.85-7.41c6.69-1.9,13-4,18.64-6.1l4.11-1.57,3.85-1.56c2.5-1,4.77-2,6.86-2.94,4.16-1.87,7.51-3.43,9.79-4.57l2.65-1.27.7-.32Z" style="fill:#263238"></path><path d="M365.59,121.83l-.21.17-.64.46c-.6.42-1.44,1-2.49,1.73-2.17,1.5-5.35,3.6-9.33,6.14a306.93,306.93,0,0,1-32.22,17.8,368.09,368.09,0,0,1-34.09,13.92c-4.44,1.56-8.05,2.79-10.56,3.6l-2.89.92-.75.23a.88.88,0,0,1-.26.06s.08,0,.24-.11l.74-.28,2.86-1c2.48-.86,6.07-2.14,10.5-3.75,8.84-3.24,21-7.9,34-14A331.34,331.34,0,0,0,352.73,130c4-2.49,7.21-4.54,9.4-6l2.55-1.65.67-.42Q365.58,121.82,365.59,121.83Z" style="fill:#263238"></path><path d="M275,159s.07-.06.23-.16l.73-.4,2.81-1.5c2.46-1.28,6-3.19,10.31-5.59s9.43-5.35,15-8.79,11.58-7.39,17.73-11.77,11.81-8.82,16.86-13c2.52-2.1,4.9-4.1,7.07-6s4.18-3.75,6-5.41c3.62-3.37,6.52-6.15,8.48-8.1,1-1,1.73-1.7,2.28-2.23.24-.24.44-.42.6-.57s.21-.19.22-.18l-.18.21-.57.61-2.21,2.3c-1.92,2-4.77,4.82-8.37,8.22-1.81,1.69-3.78,3.56-6,5.48s-4.53,4-7,6.08c-5,4.18-10.72,8.63-16.87,13s-12.2,8.31-17.78,11.75-10.72,6.33-15.07,8.7-7.91,4.22-10.39,5.45L276,158.5l-.75.36Z" style="fill:#263238"></path><path d="M281,155.88a1,1,0,0,1,.2-.18l.61-.51,2.4-1.91c.52-.42,1.1-.87,1.74-1.37l2-1.69c1.45-1.21,3.12-2.56,4.89-4.15l2.81-2.46,3-2.75c2.08-1.87,4.17-4,6.43-6.18,4.43-4.47,9.14-9.53,13.86-15s8.92-11,12.64-16.08c1.83-2.56,3.58-5,5.12-7.31s3-4.49,4.29-6.49,2.4-3.84,3.4-5.45,1.83-3,2.5-4.15l1.56-2.64.42-.67a1.14,1.14,0,0,1,.16-.23s0,.09-.11.25l-.38.71L347,80.26c-.64,1.17-1.44,2.59-2.42,4.2s-2,3.5-3.34,5.49-2.66,4.23-4.24,6.54-3.27,4.78-5.09,7.35c-3.71,5.09-7.92,10.6-12.64,16.13s-9.46,10.59-13.91,15.05c-2.27,2.18-4.38,4.3-6.48,6.16l-3,2.73-2.84,2.44c-1.79,1.57-3.47,2.91-4.95,4.1l-2.05,1.65-1.77,1.34-2.46,1.83-.64.47Z" style="fill:#263238"></path><path d="M324.28,72.43a.79.79,0,0,1,0,.25c0,.19-.09.43-.16.73q-.22,1-.63,2.79c-.28,1.21-.61,2.69-1.11,4.39s-1,3.65-1.68,5.76-1.4,4.44-2.34,6.88c-.47,1.22-.9,2.51-1.43,3.79s-1.08,2.61-1.64,4a178.78,178.78,0,0,1-8.52,17.12,223.22,223.22,0,0,1-19.69,28.58c-2.78,3.47-5.09,6.22-6.73,8.09l-1.89,2.15-.5.55c-.11.12-.17.18-.18.17a1.11,1.11,0,0,1,.14-.21l.46-.58,1.82-2.21c1.59-1.91,3.85-4.7,6.6-8.18a241.15,241.15,0,0,0,19.52-28.62,188.08,188.08,0,0,0,8.53-17c.56-1.35,1.11-2.67,1.65-4s1-2.56,1.45-3.77c1-2.43,1.69-4.74,2.4-6.85s1.23-4,1.75-5.72.89-3.16,1.19-4.36.56-2.09.73-2.77c.08-.29.15-.52.2-.71A.91.91,0,0,1,324.28,72.43Z" style="fill:#263238"></path><path d="M277.78,155.07a4.41,4.41,0,0,1,.45-.7l1.39-1.94c.61-.84,1.36-1.86,2.15-3.1s1.79-2.59,2.72-4.19,2-3.31,3.05-5.24,2.08-4,3.15-6.19a104.77,104.77,0,0,0,5.52-14.9,108.28,108.28,0,0,0,3.85-28.58c0-3.7-.08-6.7-.23-8.76-.06-1-.1-1.8-.13-2.39a7.45,7.45,0,0,1,0-.83,4.31,4.31,0,0,1,.12.82c.05.59.12,1.39.22,2.38.21,2.07.34,5.07.4,8.78A104.17,104.17,0,0,1,296.71,119a101.73,101.73,0,0,1-5.59,15c-1.09,2.2-2.1,4.31-3.2,6.19s-2.13,3.65-3.12,5.22-2,2.94-2.79,4.17-1.59,2.23-2.23,3.05l-1.47,1.89A7,7,0,0,1,277.78,155.07Z" style="fill:#263238"></path><g style="opacity:0.30000000000000004"><path d="M286.43,153.9c2.58-8.08-2.77-17.78-11-19.89q-4.56,38.31-9.14,76.64L315,257.06c-3.47-24.26-25.8-35.07-24.11-41.94C294.89,198.74,295.64,168.09,286.43,153.9Z"></path></g><path d="M279.53,219.42c13.18-19.09,13.71-46.09,1.3-65.68a17.14,17.14,0,0,0-4-20.74l-8-5.6s.67,17.88-14,37-21.18,29.19-32.15,33.88l12.5,12.28Z" style="fill:#fff"></path><path d="M246.9,70.43c.54-.44,2.38.75,5.14,3.46A66.15,66.15,0,0,1,261.84,87a73.39,73.39,0,0,1,8.62,23.14,74.87,74.87,0,0,1-.61,30.5,82.9,82.9,0,0,1-12,27.85A141.67,141.67,0,0,1,243,187.45a74.41,74.41,0,0,1-12.23,10.76c-3.23,2.15-5.33,2.88-5.76,2.34s.74-2.36,3-5.3,5.53-7.12,9.3-12.47,8.09-11.86,12.41-19.32a87.81,87.81,0,0,0,10-25.08A76.17,76.17,0,0,0,261,111.7a85.44,85.44,0,0,0-5.76-21.43c-2.41-6-4.86-10.67-6.48-14S246.32,70.88,246.9,70.43Z" style="fill:#263238"></path><path d="M436.77,326.84c0-2.86-2.35-5.11-4.6-6.87a73.25,73.25,0,0,0-21.25-11.25,52.62,52.62,0,0,0,23-15.11c2.35-2.6,4.49-6.51,2.49-9.39-1.3-1.86-3.79-2.37-6-2.63A69.2,69.2,0,0,0,412,282a28.39,28.39,0,0,0,16.77-23.67c-32.11,9.7-61.95,19.58-96.76,19.24l-22.3,40.7c11.31,8.32,17.67,21.86,21.12,35.47s4.45,27.73,7.51,41.43c.85,3.84,2.72,8.4,6.63,8.75,2.9.26,5.35-2.05,7.08-4.39a34.74,34.74,0,0,0,6.59-24c1.43,3.68,3.66,7.54,5.54,11.52s6.21,7.63,10.35,6.12c3.38-1.24,4.79-5.2,5.51-8.72a69.78,69.78,0,0,0,.47-27.09c4.25,5.53,9.49,9.43,15.56,12.87,2.15,1.22,4.69,2.31,7,1.51,3.1-1.06,4.25-4.82,4.6-8.08a45.9,45.9,0,0,0-6.78-29.19,43.6,43.6,0,0,0,28.49-.21C432.94,333.05,436.79,330.57,436.77,326.84Z" style="fill:#e0e0e0"></path><path d="M333.62,326.23s.16.13.42.41l1.12,1.23c.49.54,1.07,1.2,1.71,2s1.41,1.69,2.18,2.73c1.6,2,3.38,4.57,5.23,7.44s3.72,6.16,5.49,9.69,3.23,7,4.45,10.21,2.13,6.15,2.81,8.65c.37,1.24.62,2.39.87,3.38s.43,1.87.57,2.58.23,1.2.31,1.63a2.32,2.32,0,0,1,.08.58,2.41,2.41,0,0,1-.18-.55c-.11-.43-.24-1-.41-1.62s-.37-1.56-.65-2.54-.55-2.13-.95-3.36c-.71-2.47-1.69-5.39-2.9-8.58s-2.71-6.62-4.46-10.15-3.64-6.76-5.44-9.66-3.56-5.41-5.11-7.48c-.75-1.05-1.49-1.95-2.11-2.76s-1.18-1.5-1.65-2.06l-1-1.29A3.16,3.16,0,0,1,333.62,326.23Z" style="fill:#263238"></path><path d="M344.38,320.2a2.87,2.87,0,0,1,.49.23l1.36.73c1.18.63,2.84,1.62,4.86,2.92s4.34,2.95,6.82,4.92a88.58,88.58,0,0,1,7.65,6.91,87.09,87.09,0,0,1,6.71,7.83,79.14,79.14,0,0,1,4.69,7c.64,1,1.13,2,1.6,2.81s.83,1.56,1.12,2.16.49,1,.66,1.4a1.74,1.74,0,0,1,.2.5,3.5,3.5,0,0,1-.29-.46l-.75-1.34c-.32-.59-.7-1.31-1.2-2.12s-1-1.76-1.65-2.76c-1.26-2-2.85-4.38-4.76-6.89a94.85,94.85,0,0,0-6.7-7.76,96.63,96.63,0,0,0-7.58-6.9c-2.45-2-4.75-3.65-6.73-5s-3.61-2.38-4.75-3.06l-1.31-.81C344.52,320.33,344.37,320.22,344.38,320.2Z" style="fill:#263238"></path><path d="M350.74,304.7a2.44,2.44,0,0,1,.61.11l1.72.39c1.49.37,3.66.84,6.35,1.38a154.21,154.21,0,0,0,21.22,2.61c8.35.43,15.93.2,21.41-.05l6.49-.34,1.76-.08a2.43,2.43,0,0,1,.62,0,2.79,2.79,0,0,1-.61.1l-1.76.18c-1.53.16-3.74.33-6.48.51a190.78,190.78,0,0,1-21.46.2,138,138,0,0,1-21.27-2.77c-2.68-.59-4.84-1.12-6.32-1.54l-1.7-.49A2.79,2.79,0,0,1,350.74,304.7Z" style="fill:#263238"></path><path d="M357.51,293.19a3.27,3.27,0,0,1,.61-.06l1.74-.09c1.51-.05,3.7-.17,6.4-.38s5.9-.54,9.44-1,7.41-1.2,11.44-2.1,7.82-2,11.23-3,6.46-2.13,9-3.11,4.56-1.79,5.95-2.39l1.61-.67a4.17,4.17,0,0,1,.57-.21,2.19,2.19,0,0,1-.53.3l-1.57.76c-1.37.66-3.38,1.54-5.89,2.55s-5.56,2.12-9,3.22-7.23,2.14-11.27,3.06-7.93,1.57-11.48,2.06-6.78.78-9.48.93-4.91.23-6.42.22l-1.75,0A2.63,2.63,0,0,1,357.51,293.19Z" style="fill:#263238"></path><path d="M351,312.18c.06-.13,11.39,4.79,25.31,11s25.15,11.34,25.09,11.47-11.39-4.79-25.31-11S350.89,312.31,351,312.18Z" style="fill:#263238"></path><path d="M275.65,219.07c0,.08-1.42-.42-3.69-1.08a65.41,65.41,0,0,0-18.22-2.67c-2.37,0-3.84.06-3.84,0a3.42,3.42,0,0,1,1-.17c.66-.08,1.62-.14,2.81-.18a53.82,53.82,0,0,1,18.34,2.69c1.13.38,2,.72,2.64,1A4.33,4.33,0,0,1,275.65,219.07Z" style="fill:#263238"></path><g style="opacity:0.30000000000000004"><path d="M320.15,330.73a7.79,7.79,0,0,0,10.07-.22,17.7,17.7,0,0,0,26.26-11.7c.4-1.91.49-3.92,1.33-5.68.95-2,2.74-3.45,4.09-5.21,2.7-3.53,4.22-9,2.72-13.21a8.79,8.79,0,0,0-9-7.41l-4.53-8.12L318.2,324.06Z"></path></g><path d="M230.2,202.1a26.65,26.65,0,0,0,3-9.77,4.41,4.41,0,0,1-5.06.78,12.09,12.09,0,0,0,2.67-7.24c-16.19,4.89-34.53-3-50.22,3.26-11.83,4.75-19.7,17.89-18.29,30.57,0,0,8.34,11.93,15,18.57s12.76,13.83,12.76,13.83,1.86,27.38,32.43,48.38,82.68,16.75,82.68,16.75,7.44,15.15,14.89,13.82,9-5.31,9-5.31,12.49,8.5,19.4-.54,6.65-15.15,6.65-15.15,7.18-9.84,5.58-15.15-9.57-5.85-9.57-5.85,1.6-9.31-1.06-11.17-18.88-3.45-18.88-3.45-19.14-22.07-27.65-34.56-38.28-35.1-63.53-37Z" style="fill:#FF725E"></path><g style="opacity:0.30000000000000004"><path d="M302.5,300.61c-1.21-1.37-3.41-1.55-5.18-2,.6.18,1-.72.72-1.26a2.14,2.14,0,0,0-1.62-.81,16.22,16.22,0,0,0-5.11,0l-16.69,8.76c4.06,1.91,8.14,2.37,12.62,2.56a15.59,15.59,0,0,0,3.56,0,1.51,1.51,0,0,0,1.33-2c3,.69,6.44,1,9.25-.18,1.79-.72,1.85-2.47,1.85-3.5A2.42,2.42,0,0,0,302.5,300.61Z"></path></g><path d="M243.4,212.24a6.83,6.83,0,0,0-6.54-6l3.2-3.23-1-.22-8.9-.73c.21-.37.4-.75.58-1.13h0a26.53,26.53,0,0,0,2.46-8.63,4.41,4.41,0,0,1-5.06.78,12.09,12.09,0,0,0,2.67-7.24c-16.19,4.89-34.53-3-50.22,3.26-11.83,4.75-19.7,17.89-18.29,30.57,0,0,8.34,11.93,15,18.57s12.76,13.83,12.76,13.83,0,.37.11,1A54.66,54.66,0,0,0,235,267c2.08-.32,4.26-.83,5.74-2.32,1.69-1.71,2.06-4.31,2-6.71a22.59,22.59,0,0,0-6.17-14.47,1.93,1.93,0,0,0,2.87-1.74,3.68,3.68,0,0,0-1-1.72c-2.54-3.13-5-3.82-7.5-6.95a24.28,24.28,0,0,0,8.7-5c1.27-1.13,1.87-4.6,1.84-6.3a2.8,2.8,0,0,0-2.65-2.68A6.86,6.86,0,0,0,243.4,212.24Z" style="fill:#263238"></path><path d="M171.12,213.07a10.26,10.26,0,0,1-12.6,6.51A29.14,29.14,0,0,1,145,211.14a1.38,1.38,0,0,1-.47-1,1.36,1.36,0,0,1,.71-.82,26.31,26.31,0,0,1,22.52-2.57s4.05,4.24,3.36,6.3Z" style="fill:#455a64"></path><path d="M172.11,213.78a3.92,3.92,0,0,1-1.08-.16l-2.9-.56c-2.46-.48-5.86-1.06-9.63-1.56s-7.22-.83-9.71-1l-2.95-.21a4.24,4.24,0,0,1-1.08-.13,4.75,4.75,0,0,1,1.09-.07c.7,0,1.71,0,3,0,2.51.09,6,.36,9.76.86s7.19,1.15,9.63,1.72c1.22.27,2.2.53,2.88.73A4.54,4.54,0,0,1,172.11,213.78Z" style="fill:#263238"></path><path d="M228.53,218.14l-2.67.42c1.15-2,2.76-3.8,3.87-5.86s1.65-4.67.51-6.72a6.77,6.77,0,0,0-4.14-2.93,17,17,0,0,0-8.85.24c-4.85,1.23-9.35,3.53-13.81,5.79s-9,4.51-13.85,5.65-12.66-.25-17.11-2.53c2.78,5.57,10.44,13.09,15.89,16.83,5.62,3.87,12.07,6.77,18.88,7.26a1.94,1.94,0,0,0,1.18-.26c1.29-.82.49-2.48-.55-3.27s-2.11-1.25-2.5-2.34a26.19,26.19,0,0,0,23.11-2.9,1.21,1.21,0,0,0-.42-2.2l-2.86-.61a22.1,22.1,0,0,0,4.45-4.76A1.17,1.17,0,0,0,228.53,218.14Z" style="fill:#fff"></path><path d="M171.23,212c5.07,3.52,12.43,6.76,18.08,9.25a2,2,0,0,0,1.85.13c.66-.47.47-1.52,0-2.19A5.77,5.77,0,0,1,190,217.1a19.92,19.92,0,0,0,9.47,2.38,2.07,2.07,0,0,0,1.78-.63c.51-.75-.08-1.77-.8-2.31s-1.63-.93-2-1.73a26.34,26.34,0,0,0,21.5-15.25" style="fill:#263238"></path><path d="M319.64,290.93a22.44,22.44,0,0,0,6.62,3.56c.82.28,1.92.41,2.36-.33a2,2,0,0,0-.17-1.79l-4.21-9.82a20.41,20.41,0,0,0,4.48,3.17,2.12,2.12,0,0,0,1.57.31c.92-.32,1-1.57.85-2.52a38.25,38.25,0,0,0-3.86-12.15" style="fill:#FF725E"></path><path d="M327.28,271.36a2.47,2.47,0,0,1,.25.39c.15.27.36.66.62,1.18a33.37,33.37,0,0,1,1.82,4.54c.32,1,.63,2.08.89,3.26.14.6.26,1.21.37,1.85a7.91,7.91,0,0,1,.19,2,2.41,2.41,0,0,1-.35,1.09,1.34,1.34,0,0,1-1.06.62,4.36,4.36,0,0,1-2.15-.79,19.75,19.75,0,0,1-3.74-2.75l-.06-.05.42-.29c1.23,2.87,2.39,5.61,3.46,8.12l.77,1.83a3.39,3.39,0,0,1,.27,1,1.3,1.3,0,0,1-1.16,1.52,2.82,2.82,0,0,1-.92,0,9.21,9.21,0,0,1-1.56-.5,21.42,21.42,0,0,1-4.31-2.31,11.37,11.37,0,0,1-1-.8c-.23-.19-.35-.3-.34-.32s.54.35,1.51,1a23.08,23.08,0,0,0,4.32,2.12,9.32,9.32,0,0,0,1.5.46,1.47,1.47,0,0,0,1.41-.34c.31-.38.15-1-.09-1.56l-.79-1.81-3.5-8.11-.49-1.13.91.84.06.05a19.09,19.09,0,0,0,3.63,2.68,4.16,4.16,0,0,0,1.87.75c.6,0,.91-.64,1-1.27a7.75,7.75,0,0,0-.16-1.91c-.1-.63-.21-1.25-.34-1.84-.24-1.17-.53-2.26-.82-3.24A43.54,43.54,0,0,0,328,273,12.87,12.87,0,0,1,327.28,271.36Z" style="fill:#263238"></path><path d="M331.91,327.79a2.82,2.82,0,0,1-.78-.42c-.49-.29-1.17-.76-2-1.35a51.21,51.21,0,0,1-6-5.18,51.78,51.78,0,0,1-5.17-6c-.59-.83-1.05-1.51-1.34-2a2.82,2.82,0,0,1-.42-.78,30.34,30.34,0,0,1,2.06,2.56,69.24,69.24,0,0,0,5.24,5.9,66.69,66.69,0,0,0,5.89,5.25A31.76,31.76,0,0,1,331.91,327.79Z" style="fill:#263238"></path><path d="M353.62,310.92c0,.14-6.59-2.11-14.62-5s-14.49-5.39-14.44-5.52,6.59,2.11,14.62,5S353.67,310.79,353.62,310.92Z" style="fill:#263238"></path><path d="M351.49,289.15a27.47,27.47,0,0,1-3.34-.25c-2.06-.18-4.9-.34-8-.31s-6,.26-8,.48a28.39,28.39,0,0,1-3.33.32,3.27,3.27,0,0,1,.86-.25c.57-.13,1.39-.28,2.42-.43a59.09,59.09,0,0,1,16.16-.17c1,.13,1.85.27,2.42.38A3.77,3.77,0,0,1,351.49,289.15Z" style="fill:#263238"></path><g style="opacity:0.30000000000000004"><path d="M289.84,269.32a39.09,39.09,0,0,0,8.33,12.7,4.52,4.52,0,0,0,2.51,1.56c1.53.19,2.81-1.09,3.82-2.25a17.49,17.49,0,0,0,2.5,6,5.94,5.94,0,0,0,5.65,2.55,5.33,5.33,0,0,0,3.75-3.56,8.79,8.79,0,0,0-.1-5.32,26.53,26.53,0,0,0-2.27-4.9l-11.47-6.39-3.91,6.42-8.81-12Z"></path></g><path d="M315.59,282.18a2.53,2.53,0,0,0,.89-2.3,7,7,0,0,0-.84-2.41,51.41,51.41,0,0,0-6-9.17c-1.66-2-3.79-4.08-6.41-4.07a4.86,4.86,0,0,0-4.72,5.94l-9.19-13.11L286,262.93q5.63,7.33,11.4,14.56a7.19,7.19,0,0,0,2,1.89,2.44,2.44,0,0,0,2.59,0c1.12-.82.94-2.51.65-3.87,1.58,3.9,3.21,7.89,6,11a4.57,4.57,0,0,0,2.82,1.75c1.13.1,2.39-.88,2.14-2a2.29,2.29,0,0,0,2-4.13Z" style="fill:#263238"></path><path d="M281.64,294.54c-3.4.12-5.92,0-9,1.48a7.41,7.41,0,0,0-3.88,3.35,3.59,3.59,0,0,0-.34,1.36c-.09,2.44,2.1,3.61,4.1,4.3a30.85,30.85,0,0,0,16.36,1,1.38,1.38,0,0,0,.25-2.62h0a34.89,34.89,0,0,0,11.4-.1,1.48,1.48,0,0,0,1.21-1.12c.17-.87-.62-1.35-1.33-1.65a17.47,17.47,0,0,0-5.88-1.33,1.33,1.33,0,0,0,1.4-1.39,2.17,2.17,0,0,0-1.3-1.73,6.33,6.33,0,0,0-2.2-.48c-5.05-.49-5.91-1-11.44-1" style="fill:#263238"></path><path d="M187.74,209.22a6.53,6.53,0,0,1-3.54-1,6.69,6.69,0,0,1,.73-11.67,6,6,0,0,1,4.24-.44,7.08,7.08,0,0,1,4.41,3.54h0a6.49,6.49,0,0,1-5.84,9.58Zm-.1-12.32a5.07,5.07,0,0,0-2.26.53,6,6,0,0,0-3,3.52,5.88,5.88,0,0,0,2.38,6.42,5.56,5.56,0,0,0,8-7.25h0a6.07,6.07,0,0,0-3.78-3.05A5.06,5.06,0,0,0,187.64,196.9Z" style="fill:#fff"></path><g style="opacity:0.30000000000000004"><path d="M188.38,198.47a3.14,3.14,0,0,0-1.43.26,1.13,1.13,0,0,0-.64,1.2c.13.47.65.72,1.12.86.77.23,1.68.38,2.13,1.05.26.39.37.94.8,1.12a.82.82,0,0,0,.87-.23,1.59,1.59,0,0,0,.37-.86,2.89,2.89,0,0,0-.71-2.32,3.84,3.84,0,0,0-2.6-1.08" style="fill:#fff"></path></g><path d="M262.25,304.53a6.92,6.92,0,0,1-1.46.17,26.35,26.35,0,0,1-4-.06,30.71,30.71,0,0,1-12.66-4l.26-.44.72.44a24.38,24.38,0,0,1,5.38,4.7l.5.59-.75-.2a48.7,48.7,0,0,1-8.46-3.07c-1-.48-1.77-.89-2.29-1.19a3.77,3.77,0,0,1-.78-.5,4.82,4.82,0,0,1,.85.36c.55.25,1.34.62,2.35,1.06a54.66,54.66,0,0,0,8.45,2.87l-.24.4a24.91,24.91,0,0,0-5.29-4.58l-.7-.44.26-.45a32.13,32.13,0,0,0,12.43,4.07,35.08,35.08,0,0,0,4,.23A8.69,8.69,0,0,1,262.25,304.53Z" style="fill:#263238"></path><path d="M289.24,237.81c4.21,9.39,4,19.65,4.21,26.68a18.73,18.73,0,0,1-5.26-7.3,93.22,93.22,0,0,1,2.25,15.86l-7-7.43" style="fill:#FF725E"></path><path d="M283.43,265.62a3.86,3.86,0,0,1,.52.48l1.44,1.44,5.19,5.38-.33.14a97.63,97.63,0,0,0-2.31-15.81l.49-.16a18.52,18.52,0,0,0,5.18,7.2l-.42.21c-.07-3.85-.13-7.47-.4-10.72a62,62,0,0,0-1.25-8.5,48.3,48.3,0,0,0-1.59-5.5c-.23-.59-.41-1.07-.55-1.45a1.93,1.93,0,0,1-.16-.52,3.17,3.17,0,0,1,.25.48c.14.32.37.79.63,1.42a42.42,42.42,0,0,1,1.76,5.49,59.5,59.5,0,0,1,1.37,8.54c.3,3.27.38,6.91.45,10.74l0,.58-.44-.37a19,19,0,0,1-5.33-7.41l.49-.15A90.16,90.16,0,0,1,290.63,273l0,.53-.36-.39-5.07-5.49-1.36-1.52A3.34,3.34,0,0,1,283.43,265.62Z" style="fill:#263238"></path><path d="M223.51,264.61a23.94,23.94,0,0,0,12.75,7.09c1.53.3,3.24.42,4.51-.48s1.55-3.16.17-3.89a39,39,0,0,0,14,7.6c2.1.62,4.68,1,6.22-.59a4.39,4.39,0,0,0,.69-4.61,10.82,10.82,0,0,0-2.95-3.88c-5.82-5.45-12.94-9.29-20-13.07" style="fill:#263238"></path><path d="M307.79,273.44a67.45,67.45,0,0,1,3,6.45,65.34,65.34,0,0,1,2.82,6.55,8.07,8.07,0,0,1-1.08-1.8c-.61-1.14-1.4-2.74-2.21-4.54s-1.49-3.45-1.95-4.66A7.88,7.88,0,0,1,307.79,273.44Z" style="fill:#455a64"></path><path d="M299.57,273.88a5.85,5.85,0,0,1-.91-4.8,12.5,12.5,0,0,1,.44,2.4A13.51,13.51,0,0,1,299.57,273.88Z" style="fill:#455a64"></path><path d="M310.94,274.14a20.73,20.73,0,0,1,2.5,4,21.31,21.31,0,0,1,2,4.23,42.16,42.16,0,0,1-4.54-8.21Z" style="fill:#455a64"></path><path d="M278.94,302.48c0-.15,2.36.3,5.26.53s5.27.2,5.28.35a23.15,23.15,0,0,1-10.54-.88Z" style="fill:#455a64"></path><path d="M280,297.81a55.85,55.85,0,0,1,7.52.38,56.69,56.69,0,0,1,7.49.9,52.23,52.23,0,0,1-7.53-.38A54.44,54.44,0,0,1,280,297.81Z" style="fill:#455a64"></path><path d="M301.14,310.44a26.87,26.87,0,0,0,14.21,1.21c.45-.09,1-.27,1.09-.72s-.21-.77-.5-1.06a32.47,32.47,0,0,0-7.57-5.66,30.93,30.93,0,0,0,10.07.06c1.09-.17,2.46-.78,2.29-1.87a2.23,2.23,0,0,0-1-1.31l-6.14-4.57" style="fill:#FF725E"></path><path d="M313.55,296.52a1.94,1.94,0,0,1,.39.24l1.08.74,3.93,2.82c.41.31.85.59,1.3,1a2.13,2.13,0,0,1,.58.73,1.41,1.41,0,0,1,0,1,2.47,2.47,0,0,1-1.57,1.24,11.38,11.38,0,0,1-2,.38,31,31,0,0,1-9-.21l.17-.48c.53.29,1.09.61,1.64.95a33.64,33.64,0,0,1,4,3c.61.53,1.2,1.07,1.75,1.61a2.59,2.59,0,0,1,.74,1,.9.9,0,0,1-.1.73,1.22,1.22,0,0,1-.53.44,5,5,0,0,1-1.12.27l-1.06.15c-.7.09-1.38.14-2,.17a27.19,27.19,0,0,1-3.67-.09,26,26,0,0,1-5.2-1.05c-.6-.2-1.05-.36-1.36-.49s-.46-.2-.45-.22.67.19,1.87.51a28.39,28.39,0,0,0,5.17.88,26.88,26.88,0,0,0,3.61,0c.65,0,1.32-.1,2-.19.34-.05.69-.1,1-.17a3.85,3.85,0,0,0,1-.24c.29-.13.44-.34.36-.6a2.07,2.07,0,0,0-.62-.79c-.55-.54-1.13-1.07-1.73-1.58a33.34,33.34,0,0,0-4-2.9c-.55-.34-1.1-.66-1.62-.95l-1.37-.75,1.54.27a31.09,31.09,0,0,0,8.82.25,11,11,0,0,0,1.92-.33,2.12,2.12,0,0,0,1.32-1,1.19,1.19,0,0,0-.49-1.32c-.4-.35-.85-.66-1.25-1-1.58-1.21-2.87-2.2-3.83-3l-1-.81C313.65,296.64,313.54,296.54,313.55,296.52Z" style="fill:#263238"></path><g style="opacity:0.30000000000000004"><path d="M308.57,312.1c4.34,2.5,11.88,4.14,16.48,2.17l-3.19-4A20.52,20.52,0,0,0,333.11,309a4,4,0,0,0,2.15-1.62,3,3,0,0,0-.47-3.18,9,9,0,0,0-2.67-2.08c1.64.8,3.7-.55,4.25-2.29a7.87,7.87,0,0,0-.72-5.32,18,18,0,0,1-1.8-5.16l3.15,1.14a38.54,38.54,0,0,0-8.15-14.19l1.41,7.55a2.08,2.08,0,0,1-.24,1.82c-.75.79-2.06-.06-2.71-.95s-1.57-2-2.59-1.58c.95,3.16,2.88,6.61,3.83,9.78a1.78,1.78,0,0,1-.67,1.67,3,3,0,0,1-2.27-.18c-1.76-1-3.2-1.74-5-2.76.9.78,2.83,2.6,2.92,4.66.07,1.8-1.81,3.18-3.61,3.24s-4.83-2.12-6.41-3c0,0,3.74,2.75,5.18,3.86s2.78,1.64,1.64,3.05c-.6.73-2.32,1.09-3.26,1.21a34.94,34.94,0,0,1-8.54-.33c2.48.82,6.16,4.2,8.06,6.37,0,0,.15,1-2.17,1.12S308.57,312.1,308.57,312.1Z"></path></g><path d="M350.2,276.84l1.42-.18,4.16-.47c3.66-.46,9-1.2,15.9-2.54s15.19-3.26,24.75-5.91,20.35-6,32.28-9.6l.27-.08,0,.28a28.68,28.68,0,0,1-16.87,23.87l-.12-.42a69.78,69.78,0,0,1,14.82-.73c1.27.08,2.54.19,3.82.33a13,13,0,0,1,3.82.95,5,5,0,0,1,2.74,2.9,6.06,6.06,0,0,1-.23,4,13.44,13.44,0,0,1-2,3.52,37,37,0,0,1-2.74,3A55.6,55.6,0,0,1,426,301.2,50.49,50.49,0,0,1,411,309v-.47a78.56,78.56,0,0,1,15.05,7,65.57,65.57,0,0,1,7,4.89,14,14,0,0,1,3,3.21,6,6,0,0,1,.93,4.31,6.83,6.83,0,0,1-2.31,3.81,14.78,14.78,0,0,1-3.78,2.35,41,41,0,0,1-8.58,2.41,44.3,44.3,0,0,1-18-.67l-1.72-.47-1.69-.54.3-.38a46.25,46.25,0,0,1,6.34,16.4,47,47,0,0,1,.72,8.68A25,25,0,0,1,407,368a7.35,7.35,0,0,1-2.61,3.47,5.69,5.69,0,0,1-4.25.73,13.38,13.38,0,0,1-4-1.57c-1.22-.69-2.42-1.4-3.59-2.15a46.66,46.66,0,0,1-12.26-10.91l.44-.2a68.92,68.92,0,0,1,1,16.72,74.35,74.35,0,0,1-1,8.1,24.65,24.65,0,0,1-2.27,7.71,8.16,8.16,0,0,1-2.68,3,6,6,0,0,1-3.88.88,7.84,7.84,0,0,1-3.65-1.45,12.46,12.46,0,0,1-2.78-2.69,16.28,16.28,0,0,1-1.91-3.29c-.55-1.11-1.15-2.2-1.75-3.28a43.74,43.74,0,0,1-3.15-6.64l.42-.09a33.41,33.41,0,0,1-1.14,12.05,34.88,34.88,0,0,1-5.07,10.39,16.14,16.14,0,0,1-3.79,4.11,7.33,7.33,0,0,1-2.52,1.16,5.3,5.3,0,0,1-2.74-.15,7.13,7.13,0,0,1-3.85-3.57,19.2,19.2,0,0,1-1.73-4.82c-1.46-6.52-2.38-12.7-3.25-18.4s-1.65-10.93-2.56-15.61a127.09,127.09,0,0,0-3-12.37,84.78,84.78,0,0,0-3.2-8.82c-1-2.34-1.89-4.08-2.51-5.25-.31-.57-.54-1-.7-1.31l-.24-.45s.37.58,1,1.73,1.54,2.89,2.57,5.23a80.52,80.52,0,0,1,3.26,8.82,122.28,122.28,0,0,1,3.06,12.37c.92,4.69,1.74,9.92,2.61,15.61s1.83,11.87,3.29,18.37a18.81,18.81,0,0,0,1.71,4.72,6.8,6.8,0,0,0,3.64,3.4,4.9,4.9,0,0,0,2.55.12,6.79,6.79,0,0,0,2.38-1.1,15.79,15.79,0,0,0,3.69-4,34.87,34.87,0,0,0,5-10.27,33.28,33.28,0,0,0,1.11-11.91l-.13-1.63.55,1.54a43.3,43.3,0,0,0,3.13,6.57c.6,1.08,1.2,2.18,1.76,3.3a16.11,16.11,0,0,0,1.87,3.22,9.55,9.55,0,0,0,6.12,3.95,5.53,5.53,0,0,0,3.58-.82,7.52,7.52,0,0,0,2.52-2.81,24.3,24.3,0,0,0,2.21-7.56,73.61,73.61,0,0,0,1-8.06,67.87,67.87,0,0,0-1-16.59l-.18-1,.62.82A46.75,46.75,0,0,0,392.84,368c1.16.73,2.36,1.44,3.57,2.12a12.77,12.77,0,0,0,3.81,1.52,5.14,5.14,0,0,0,3.87-.66,6.82,6.82,0,0,0,2.41-3.23,24.77,24.77,0,0,0,1.2-8.35,47.52,47.52,0,0,0-.72-8.57,45.74,45.74,0,0,0-6.27-16.22l-.37-.61.68.22,1.67.53,1.7.46a43.75,43.75,0,0,0,17.78.67,40.53,40.53,0,0,0,8.46-2.38,14.12,14.12,0,0,0,3.65-2.26,6.3,6.3,0,0,0,2.14-3.51,5.4,5.4,0,0,0-.86-3.95,13.23,13.23,0,0,0-2.85-3.08,63.91,63.91,0,0,0-6.93-4.85A78.12,78.12,0,0,0,410.84,309l-.71-.25.72-.23a49.72,49.72,0,0,0,14.82-7.68,53.46,53.46,0,0,0,6.16-5.35,37.69,37.69,0,0,0,2.71-3,13.19,13.19,0,0,0,2-3.38,5.69,5.69,0,0,0,.23-3.72,4.62,4.62,0,0,0-2.5-2.63,12.06,12.06,0,0,0-3.67-.91c-1.27-.15-2.54-.26-3.8-.33a68.9,68.9,0,0,0-14.72.7l-1.7.27,1.58-.69a28.26,28.26,0,0,0,16.65-23.48l.25.19c-11.94,3.61-22.73,6.93-32.31,9.52s-17.92,4.53-24.79,5.83-12.26,2-15.92,2.45c-1.83.2-3.24.32-4.18.41S350.2,276.84,350.2,276.84Z" style="fill:#263238"></path><path d="M231,193.91l6.36-7.23c2.08-2.38,4.64-5.34,7.56-8.94s6.19-7.85,9.51-12.89a99.26,99.26,0,0,0,9.41-17.75,69.39,69.39,0,0,0,5.08-23.34,55.9,55.9,0,0,0-1.24-13.29,69.64,69.64,0,0,0-4.46-13.54c-3.95-9-9.77-17.73-16.44-26.4a.17.17,0,0,1,0-.24.15.15,0,0,1,.09,0,22.24,22.24,0,0,1,11.81,2.17,31.47,31.47,0,0,1,10,7.65,46.46,46.46,0,0,1,7,11.09c1.89,4,3.41,8.32,5,12.63l-.39,0a108.37,108.37,0,0,0-3.52-34.34A104.77,104.77,0,0,0,261,35.86a.22.22,0,0,1,.05-.31l.1,0a19.45,19.45,0,0,1,7.7.51A30.55,30.55,0,0,1,276,39a37,37,0,0,1,6.44,4.57,38.28,38.28,0,0,1,5.46,5.84,55.57,55.57,0,0,1,4.2,6.89c1.29,2.37,2.53,4.8,3.61,7.31A56,56,0,0,1,300,79.51h-.47a77.77,77.77,0,0,0-1.63-29.89c-2.37-10-6.21-19.87-10.38-29.68a.25.25,0,0,1,.27-.35,47.81,47.81,0,0,1,16,6.54,54,54,0,0,1,7.08,5.3,34.74,34.74,0,0,1,5.94,6.68c.43.61.78,1.29,1.17,1.93s.66,1.36,1,2c.57,1.4,1.07,2.82,1.5,4.27a75.27,75.27,0,0,1,2.05,8.85,120.34,120.34,0,0,1,1.67,18.25l-.5-.1a65.72,65.72,0,0,0,5.44-25,129.39,129.39,0,0,0-2.36-26.62h0a.27.27,0,0,1,.21-.3h0a10.87,10.87,0,0,1,5,.83,35.88,35.88,0,0,1,4.73,2.16c1.17.63,2.31,1.27,3.43,2a30.71,30.71,0,0,1,3.16,2.38,37.67,37.67,0,0,1,5.48,5.67,17.64,17.64,0,0,1,2.09,3.36c.53,1.23.87,2.48,1.3,3.71s.65,2.54,1,3.8.44,2.57.63,3.86a51.07,51.07,0,0,1-6,29.89l-.43-.27c2.1-2.91,4.36-5.61,6.51-8.42s4.26-5.6,6.28-8.46,4-5.76,5.8-8.7,3.54-6,5.14-9a.26.26,0,0,1,.35-.11.25.25,0,0,1,.11.12,45.58,45.58,0,0,1,4.09,13.43,41.91,41.91,0,0,1-.44,13.87c-1.84,9.1-6.44,17.28-12,24.28l-.33-.36a56.18,56.18,0,0,0,5.54-4.68c1.76-1.65,3.47-3.34,5.16-5q5-5.13,9.8-10.36a.24.24,0,0,1,.34,0,.36.36,0,0,1,.07.1,31.77,31.77,0,0,1,1.66,13.78,48.75,48.75,0,0,1-3,13.36,41.93,41.93,0,0,1-6.6,11.71,26.52,26.52,0,0,1-10.47,8l-.17-.43c7.82-3.18,15.43-6.27,22.69-9.71h0a.22.22,0,0,1,.3.1v0a23.43,23.43,0,0,1,.35,12.12,37.94,37.94,0,0,1-4.36,11,41,41,0,0,1-7.17,9.12,28.14,28.14,0,0,1-9.52,6.1l-.14-.39c3.3-1.17,6.49-2.3,9.64-3.36,1.58-.52,3.14-1,4.71-1.48a17.61,17.61,0,0,1,4.82-.94.16.16,0,0,1,.14.09v0a16.24,16.24,0,0,1,1.49,7.19,24.4,24.4,0,0,1-1.14,7.09,36,36,0,0,1-6.62,12.17,54.4,54.4,0,0,1-9.6,9.19c-3.52,2.55-7.09,4.85-10.65,7l-.12-.32a21.53,21.53,0,0,1,6.79-.21,6.22,6.22,0,0,1,3.05,1.39,5.31,5.31,0,0,1,1.05,1.31,10.06,10.06,0,0,1,.63,1.53,11.6,11.6,0,0,1,.35,6.36,15.81,15.81,0,0,1-2.58,5.65,22.72,22.72,0,0,1-9,7.64,33.52,33.52,0,0,1-10.74,3l0-.28a10.63,10.63,0,0,1,7.51,2.58,12.3,12.3,0,0,1,4.08,6.37,12.15,12.15,0,0,1-.44,7.13,15.62,15.62,0,0,1-1.56,3.08,15.67,15.67,0,0,1-4.71,4.57,15,15,0,0,1-2.83,1.36,17.38,17.38,0,0,1-5.88,1,20.93,20.93,0,0,1-10.29-2.82l.14-.11a15.25,15.25,0,0,1,0,8,15.7,15.7,0,0,1-3.21,6.14,14.33,14.33,0,0,1-4.68,3.57,16,16,0,0,1-4.63,1.41,15.82,15.82,0,0,1-6.42-.43,12.83,12.83,0,0,1-1.52-.55l-.5-.21.51.19a14.34,14.34,0,0,0,1.53.52,15.69,15.69,0,0,0,6.39.38,15.46,15.46,0,0,0,4.59-1.41,14.27,14.27,0,0,0,4.62-3.56,15.63,15.63,0,0,0,3.17-6.09,15.13,15.13,0,0,0,0-7.88.09.09,0,0,1,.06-.11.08.08,0,0,1,.07,0,20.73,20.73,0,0,0,10.2,2.77,15.69,15.69,0,0,0,11.11-4.31,16.19,16.19,0,0,0,2.11-2.53,15.37,15.37,0,0,0,1.53-3,11.59,11.59,0,0,0-3.58-13.21,10.42,10.42,0,0,0-7.32-2.51.14.14,0,0,1,0-.28,32.93,32.93,0,0,0,10.63-3,22.47,22.47,0,0,0,8.84-7.55,15.42,15.42,0,0,0,2.52-5.54,11.28,11.28,0,0,0-.34-6.19,12.63,12.63,0,0,0-.61-1.47,4.83,4.83,0,0,0-1-1.22,6,6,0,0,0-2.9-1.31,21.08,21.08,0,0,0-6.66.23.17.17,0,0,1-.2-.15A.16.16,0,0,1,360,187c3.55-2.15,7.12-4.45,10.62-7a54,54,0,0,0,9.52-9.14,35.7,35.7,0,0,0,6.54-12,24.11,24.11,0,0,0,1.12-7,15.87,15.87,0,0,0-1.46-7l.16.11a17.81,17.81,0,0,0-4.66.92c-1.56.46-3.12,1-4.69,1.49-3.14,1.06-6.34,2.19-9.63,3.36a.21.21,0,0,1-.27-.12.21.21,0,0,1,.13-.27,27.7,27.7,0,0,0,9.37-6,40.38,40.38,0,0,0,7.08-9,37.39,37.39,0,0,0,4.31-10.92,23,23,0,0,0-.34-11.89l.31.13c-7.29,3.46-14.9,6.55-22.72,9.74a.23.23,0,1,1-.17-.43h0A26,26,0,0,0,375.46,114,41.57,41.57,0,0,0,382,102.39a48.25,48.25,0,0,0,3-13.22,31.33,31.33,0,0,0-1.63-13.57l.4.07Q379,80.91,373.91,86q-2.52,2.56-5.17,5.06a56.74,56.74,0,0,1-5.59,4.73.25.25,0,0,1-.33-.36c5.55-7,10.11-15.08,11.92-24.07a41.16,41.16,0,0,0,.44-13.7,45.06,45.06,0,0,0-4.05-13.28h.46q-2.41,4.61-5.16,9t-5.82,8.73c-2,2.87-4.13,5.69-6.29,8.48s-4.43,5.53-6.5,8.39a.26.26,0,0,1-.36.06.28.28,0,0,1-.07-.34,50.55,50.55,0,0,0,5.89-29.57c-.18-1.28-.38-2.55-.62-3.82s-.57-2.51-1-3.75-.78-2.48-1.28-3.64a17.23,17.23,0,0,0-2-3.26,38,38,0,0,0-5.4-5.59,33.36,33.36,0,0,0-3.11-2.35c-1.09-.69-2.25-1.34-3.39-2a36.65,36.65,0,0,0-4.66-2.13,10.63,10.63,0,0,0-4.73-.81l.22-.3a130.21,130.21,0,0,1,2.37,26.73,66.38,66.38,0,0,1-5.48,25.22.27.27,0,0,1-.35.13.28.28,0,0,1-.15-.24,120.8,120.8,0,0,0-1.65-18.17,76.13,76.13,0,0,0-2-8.78c-.42-1.44-.93-2.85-1.48-4.22-.33-.67-.58-1.36-1-2s-.72-1.29-1.15-1.89a34,34,0,0,0-5.85-6.58,52.82,52.82,0,0,0-7-5.25,47.46,47.46,0,0,0-15.84-6.47l.27-.35c4.17,9.82,8,19.69,10.4,29.77A78.09,78.09,0,0,1,300,79.58a.24.24,0,0,1-.27.2.22.22,0,0,1-.2-.21,56,56,0,0,0-4.25-15.8c-1.08-2.49-2.31-4.91-3.59-7.27a56.63,56.63,0,0,0-4.16-6.84,38.31,38.31,0,0,0-5.39-5.77,37.48,37.48,0,0,0-6.36-4.52,29.89,29.89,0,0,0-7.12-2.91,19.09,19.09,0,0,0-7.51-.5l.15-.36a105,105,0,0,1,15.89,33.79,108.64,108.64,0,0,1,3.51,34.48.2.2,0,0,1-.21.19.22.22,0,0,1-.18-.14c-1.58-4.31-3.09-8.57-5-12.59a46,46,0,0,0-7-11,31,31,0,0,0-9.89-7.57,21.84,21.84,0,0,0-11.61-2.15l.12-.28c6.67,8.69,12.5,17.43,16.45,26.48A70,70,0,0,1,268,110.41a55.37,55.37,0,0,1,1.22,13.36A69.11,69.11,0,0,1,264,147.18,98.48,98.48,0,0,1,254.57,165,157.36,157.36,0,0,1,245,177.83c-2.93,3.59-5.51,6.54-7.6,8.92C233.22,191.48,231,193.91,231,193.91Z" style="fill:#263238"></path><path d="M276.32,324.42s.17.45.48,1.33c.15.45.26,1,.43,1.7a17.18,17.18,0,0,1,.28,2.43,15.33,15.33,0,0,1-1.27,6.76,18.42,18.42,0,0,1-5.88,7.48l0-.11a25.84,25.84,0,0,1,4.67,7.84,19.14,19.14,0,0,1,1.16,10.6,11,11,0,0,1-2.75,5.27,15.82,15.82,0,0,1-5.1,3.79,11.13,11.13,0,0,1-6.64.71,17.46,17.46,0,0,1-6.46-2.9l.17-.18a21.41,21.41,0,0,1,3.22,5.61,26.11,26.11,0,0,1,1.74,6.55,48.58,48.58,0,0,1,.2,7.06,43.86,43.86,0,0,1-.86,7.3,18.13,18.13,0,0,1-1.15,3.62,17,17,0,0,1-2,3.29,16.43,16.43,0,0,1-6.1,5,11,11,0,0,1-4,1,5.41,5.41,0,0,1-3.7-1.81,21.9,21.9,0,0,1-4.37-7.19l.32-.08a86.82,86.82,0,0,1,.26,17,43.8,43.8,0,0,1-1.6,8.75,17.49,17.49,0,0,1-4.51,7.91,15.51,15.51,0,0,1-3.82,2.72,7.85,7.85,0,0,1-7,.19,9.07,9.07,0,0,1-2-1.38,11.18,11.18,0,0,1-3-3.87,61.56,61.56,0,0,1-2.75-9.46c-.37-1.61-.72-3.24-1.05-4.88-.16-.82-.33-1.65-.49-2.47l-.25-1.24-.12-.62-.07-.31,0-.14v-.07s0,0,0,0,.61-.14.35-.08v-.07a37.83,37.83,0,0,1,.49,14.67,51.25,51.25,0,0,1-4.65,14.45A64.59,64.59,0,0,1,200,453.63a60.54,60.54,0,0,1-11.81,10.86.22.22,0,0,1-.31-.06.21.21,0,0,1,0-.11c-.49-5.85-.89-12-1.14-18.25-.13-3.15-.21-6.34-.22-9.56s.05-6.48.34-9.75l.46,0c-1,10.54-3.67,21.38-9.1,31.18a53.22,53.22,0,0,1-10.37,13.32,45.52,45.52,0,0,1-14.59,9.09.25.25,0,0,1-.32-.13.5.5,0,0,1,0-.12c1-10.39,2.19-21.72,3.34-33.21l.48.12a62.91,62.91,0,0,1-6.18,11.49,50.59,50.59,0,0,1-8.84,10.09,37.51,37.51,0,0,1-5.57,4,32.41,32.41,0,0,1-6.33,2.75,29,29,0,0,1-6.87,1.16,32.73,32.73,0,0,1-7-.5h0a.25.25,0,0,1-.2-.28.19.19,0,0,1,0-.07l18.94-41.47.46.24a38.58,38.58,0,0,1-3.17,4.51,45.91,45.91,0,0,1-3.84,4.06,88.76,88.76,0,0,1-8.91,7c-1.56,1.09-3,2.29-4.64,3.39a36.68,36.68,0,0,1-5.13,2.76,57,57,0,0,1-11.1,3.65A44.68,44.68,0,0,1,89,461H87.86l-1.17-.07a4.83,4.83,0,0,1-2.34-.56,3.92,3.92,0,0,1-1.82-4.26A4.26,4.26,0,0,1,83.77,454l1.61-1.66,3.24-3.27c2.18-2.17,4.38-4.3,6.58-6.42,4.4-4.24,8.82-8.42,13.08-12.71a150.62,150.62,0,0,0,12-13.42l.37.36a52.71,52.71,0,0,1-12.33,7.06,78.84,78.84,0,0,1-13.49,4A101.71,101.71,0,0,1,81,429.79c-1.16.08-2.31.12-3.47.16a11.78,11.78,0,0,1-3.49-.45,5.25,5.25,0,0,1-3-2,3.56,3.56,0,0,1,0-3.53,4.7,4.7,0,0,1,1.15-1.39c.49-.38,1-.64,1.46-1l2.88-1.83,5.74-3.66,11.39-7.24,22.39-14.25.23.44A111.22,111.22,0,0,1,102,400.45a52.24,52.24,0,0,1-14.92,1.9,33.24,33.24,0,0,1-14.29-3.67A23.08,23.08,0,0,1,62.6,388.51a.23.23,0,0,1,.11-.31l.1,0A135.6,135.6,0,0,0,136.48,365l.23.36a42.79,42.79,0,0,1-51.6-5.81.2.2,0,0,1,0-.27.17.17,0,0,1,.15-.05,93.87,93.87,0,0,0,36.78-4A95.27,95.27,0,0,0,151.32,340a88.59,88.59,0,0,0,11.06-10.13l2.37-2.68c.8-.87,1.47-1.84,2.2-2.73,1.47-1.79,2.73-3.69,4-5.51a93.49,93.49,0,0,0,10.7-21.75,97.45,97.45,0,0,0,4.42-18.88c.14-1.4.28-2.74.41-4s.15-2.54.22-3.72c.17-2.37.07-4.53.07-6.45a84.93,84.93,0,0,0-.67-8.73c-.25-1.95-.36-3-.36-3s.15,1,.41,3a79,79,0,0,1,.72,8.73c0,1.92.12,4.08,0,6.45-.07,1.19-.06,2.44-.2,3.73s-.27,2.64-.41,4a97,97,0,0,1-4.37,18.93,93.23,93.23,0,0,1-10.69,21.82c-1.27,1.83-2.52,3.73-4,5.53-.73.9-1.4,1.87-2.2,2.75s-1.58,1.78-2.38,2.69a87.59,87.59,0,0,1-11.08,10.17,95.21,95.21,0,0,1-29.36,15.4,93.9,93.9,0,0,1-36.91,4l.15-.32A42.36,42.36,0,0,0,136.49,365a.21.21,0,0,1,.29.07.21.21,0,0,1-.06.28,136.13,136.13,0,0,1-73.91,23.26l.21-.34a22.73,22.73,0,0,0,10,10,32.69,32.69,0,0,0,14.08,3.6A51.63,51.63,0,0,0,101.91,400a111,111,0,0,0,14.25-5.32.24.24,0,0,1,.32.12.25.25,0,0,1-.09.31L94,409.34l-11.39,7.25-5.74,3.65L74,422.08c-.48.31-1,.6-1.41.92a4,4,0,0,0-1,1.23,3.09,3.09,0,0,0,0,3A4.76,4.76,0,0,0,74.21,429c2.15.69,4.48.37,6.78.27a101.91,101.91,0,0,0,13.75-1.81,77.3,77.3,0,0,0,13.4-4,52.15,52.15,0,0,0,12.21-7,.26.26,0,0,1,.36,0,.27.27,0,0,1,0,.32,150.3,150.3,0,0,1-12.07,13.46c-4.26,4.3-8.68,8.49-13.08,12.73q-3.3,3.17-6.57,6.41l-3.24,3.27-1.61,1.65A3.85,3.85,0,0,0,83,456.18a3.43,3.43,0,0,0,1.58,3.69,4.28,4.28,0,0,0,2.12.49l1.15.07H89a43.62,43.62,0,0,0,9.16-1.11,56.77,56.77,0,0,0,11-3.61,37.11,37.11,0,0,0,5-2.72c1.56-1.06,3.07-2.29,4.63-3.38a89.84,89.84,0,0,0,8.86-7,46.14,46.14,0,0,0,3.79-4,39.56,39.56,0,0,0,3.13-4.44.24.24,0,0,1,.35-.09.26.26,0,0,1,.11.33l-18.94,41.43-.2-.34a31.76,31.76,0,0,0,6.87.5,28.47,28.47,0,0,0,6.74-1.14,31.89,31.89,0,0,0,6.23-2.7,37.47,37.47,0,0,0,5.49-3.92,50.21,50.21,0,0,0,8.75-10,62.82,62.82,0,0,0,6.13-11.39.25.25,0,0,1,.33-.14.24.24,0,0,1,.16.25c-1.16,11.49-2.3,22.82-3.35,33.2l-.33-.25a45.29,45.29,0,0,0,14.44-9,52.79,52.79,0,0,0,10.28-13.21c5.4-9.72,8.06-20.5,9.06-31a.24.24,0,0,1,.26-.21.22.22,0,0,1,.2.25c-.28,3.24-.33,6.49-.34,9.71s.09,6.4.21,9.54c.25,6.28.65,12.4,1.13,18.23l-.34-.16a59.91,59.91,0,0,0,11.73-10.77,64.17,64.17,0,0,0,8.5-13A50.47,50.47,0,0,0,212.75,426a37.4,37.4,0,0,0-.47-14.51h0a.06.06,0,0,1,0,0v-.05c-.27.05.39-.22.36-.11a.49.49,0,0,1,.05.11l0,.09,0,.16.07.31.12.62.25,1.24c.16.83.33,1.65.49,2.47.33,1.64.68,3.26,1,4.88a62.73,62.73,0,0,0,2.72,9.39,10.74,10.74,0,0,0,2.86,3.73,8.57,8.57,0,0,0,1.92,1.33,7.74,7.74,0,0,0,2.22.63,7.84,7.84,0,0,0,4.46-.81,15.56,15.56,0,0,0,3.73-2.66,17.28,17.28,0,0,0,4.42-7.75,44.19,44.19,0,0,0,1.59-8.67,86.92,86.92,0,0,0-.24-16.88.17.17,0,0,1,.15-.18.16.16,0,0,1,.17.1A21.57,21.57,0,0,0,243,406.5a5.07,5.07,0,0,0,3.47,1.72,10.63,10.63,0,0,0,3.83-1,16.08,16.08,0,0,0,6-4.89,16.65,16.65,0,0,0,2-3.22,18.88,18.88,0,0,0,1.13-3.56,44.12,44.12,0,0,0,.87-7.25,49.4,49.4,0,0,0-.19-7,25.37,25.37,0,0,0-1.72-6.48,21.12,21.12,0,0,0-3.16-5.55.13.13,0,0,1,0-.18.15.15,0,0,1,.16,0,17.29,17.29,0,0,0,6.36,2.88,11.11,11.11,0,0,0,3.35.15,11.54,11.54,0,0,0,3.15-.84,15.66,15.66,0,0,0,5-3.72,10.76,10.76,0,0,0,2.71-5.17,18.92,18.92,0,0,0-1.12-10.5,25.62,25.62,0,0,0-4.62-7.8.07.07,0,0,1,0-.1h0a18.42,18.42,0,0,0,5.86-7.4,15.34,15.34,0,0,0,1.29-6.72,17.38,17.38,0,0,0-.25-2.42c-.17-.67-.27-1.25-.42-1.7Z" style="fill:#263238"></path></g></svg>