<?xml version="1.0" encoding="iso-8859-1"?>
<!-- Uploaded to: SVG Repo, www.svgrepo.com, Generator: SVG Repo Mixer Tools -->
<svg height="800px" width="800px" version="1.1" id="Layer_1" xmlns="http://www.w3.org/2000/svg" xmlns:xlink="http://www.w3.org/1999/xlink" 
	 viewBox="0 0 512 512" xml:space="preserve">
<path style="fill:#a318da;" d="M196.594,512c-1.716,0-3.45-0.313-5.119-0.96c-5.85-2.273-9.504-8.13-8.971-14.384l14.522-170.571
	H48.049c-4.648,0-8.999-2.283-11.64-6.108c-2.641-3.825-3.235-8.702-1.588-13.049L147.627,9.135C149.71,3.637,154.976,0,160.854,0
	h232.583c4.743,0,9.167,2.376,11.788,6.328c2.621,3.952,3.088,8.955,1.242,13.321l-49.4,116.91h106.884
	c5.391,0,10.311,3.064,12.692,7.9s1.803,10.606-1.485,14.876l-48.819,63.388c-4.767,6.191-13.648,7.341-19.837,2.576
	c-6.19-4.767-7.343-13.648-2.576-19.837l31.278-40.612h-99.471c-4.743,0-9.167-2.376-11.788-6.328s-3.088-8.955-1.242-13.321
	l49.402-116.912H170.623L68.532,297.794h143.894c3.961,0,7.739,1.661,10.418,4.576c2.679,2.917,4.013,6.822,3.676,10.768
	l-11.743,137.929l121.963-158.363c4.768-6.19,13.648-7.341,19.837-2.576c6.19,4.767,7.342,13.648,2.576,19.837L207.803,506.485
	C205.066,510.04,200.889,512,196.594,512z"/>
<polygon style="fill:#FEE187;" points="274.026,255.36 129.983,255.36 199.925,70.724 307.059,70.724 249.356,207.284 
	346.772,207.284 259.542,338.02 "/>
<path style="fill:#FFC61B;" d="M259.538,352.166c-1.76,0-3.54-0.328-5.255-1.016c-6.21-2.487-9.828-8.983-8.674-15.572
	l11.579-66.073H129.985c-4.648,0-8.999-2.283-11.64-6.108c-2.641-3.825-3.235-8.702-1.588-13.048l69.94-184.636
	c2.082-5.498,7.348-9.135,13.228-9.135H307.06c4.743,0,9.167,2.376,11.788,6.328c2.621,3.952,3.088,8.955,1.241,13.321l-49.4,116.91
	h76.084c5.217,0,10.012,2.873,12.471,7.473c2.461,4.6,2.19,10.183-0.706,14.522l-87.232,130.737
	C268.618,349.899,264.153,352.166,259.538,352.166z M150.466,241.215h123.56c4.178,0,8.143,1.847,10.831,5.047
	c2.686,3.2,3.822,7.425,3.101,11.539l-2.886,16.47l35.259-52.843h-70.974c-4.743,0-9.169-2.376-11.788-6.328
	c-2.62-3.952-3.086-8.955-1.24-13.321l49.399-116.91h-76.035L150.466,241.215z"/>
</svg>