<svg xmlns="http://www.w3.org/2000/svg" xmlns:xlink="http://www.w3.org/1999/xlink" viewBox="0 0 500 500"><defs><clipPath id="freepik--clip-path--inject-3"><polygon points="414.4 266.22 214.47 259.02 214.47 114.98 414.4 107.78 414.4 266.22" style="fill:#fff;stroke:#263238;stroke-linecap:round;stroke-linejoin:round"></polygon></clipPath></defs><g id="freepik--Wall--inject-3"><line x1="101.96" y1="143.21" x2="101.96" y2="386.62" style="fill:none;stroke:#263238;stroke-linecap:round;stroke-linejoin:round"></line><line x1="110.1" y1="145.43" x2="110.1" y2="388.84" style="fill:none;stroke:#263238;stroke-linecap:round;stroke-linejoin:round"></line><line x1="295.8" y1="164.67" x2="295.8" y2="408.07" style="fill:none;stroke:#263238;stroke-linecap:round;stroke-linejoin:round"></line><line x1="303.93" y1="166.88" x2="303.93" y2="410.29" style="fill:none;stroke:#263238;stroke-linecap:round;stroke-linejoin:round"></line><line x1="78.54" y1="384.3" x2="420.19" y2="422.69" style="fill:none;stroke:#263238;stroke-linecap:round;stroke-linejoin:round"></line><line x1="78.54" y1="269.63" x2="434.05" y2="291.82" style="fill:none;stroke:#263238;stroke-linecap:round;stroke-linejoin:round"></line></g><g id="freepik--Plants--inject-3"><ellipse cx="367.14" cy="430.39" rx="43.78" ry="10.21" style="fill:#FF725E"></ellipse><ellipse cx="367.14" cy="430.39" rx="43.78" ry="10.21" style="fill:#fff;opacity:0.5"></ellipse><path d="M331.89,411v16.8c0,4.38,14.37,7.92,32.1,7.92s32.09-3.54,32.09-7.92V411Z" style="fill:#FF725E"></path><path d="M392.55,408.2c-5.83-2.39-16.44-4-28.56-4s-22.73,1.6-28.57,4h-4.78v4.24c0,4.55,14.93,8.23,33.35,8.23s33.34-3.68,33.34-8.23V408.2Z" style="fill:#FF725E"></path><ellipse cx="363.99" cy="408.2" rx="33.35" ry="8.23" style="fill:#FF725E"></ellipse><path d="M394,407.68c0,3.83-13.45,6.94-30,6.94s-30.05-3.11-30.05-6.94,13.45-6.95,30.05-6.95S394,403.84,394,407.68Z" style="opacity:0.39"></path><ellipse cx="363.99" cy="409.05" rx="29.45" ry="5.57" style="opacity:0.39"></ellipse><path d="M355.5,285s-.55-3-.61-3.2c-.69-2.18-3.24-6.14-5.73-6.41a2.59,2.59,0,0,0-2.82,3c.18,1.76,1.75,3.42,3.16,4.44C351.16,284.06,355.49,285,355.5,285Z" style="fill:#FF725E"></path><path d="M360.3,265.69c-2.33.57-3.49,4.76-3.42,7,0,.19.45,3.22.49,3.2h0c-.18.66-.38,1.37-.57,2.15-.36,1.45-.74,3.09-1,4.92a49.06,49.06,0,0,0-.66,6,37.83,37.83,0,0,0,.23,6.83s0,.06,0,.08c-.3-.69-1.22-2.61-1.31-2.75-1.21-2-4.65-5.24-7-4.85A2.66,2.66,0,0,0,345.2,292c.63,1.71,2.53,2.94,4.13,3.57,1.79.71,5.79.56,6.11.54a56.23,56.23,0,0,0,1.47,6.94c.37,1.34.78,2.68,1.21,4-.29-.59-.54-1.12-.59-1.19-1.21-2-4.65-5.24-7-4.84a2.65,2.65,0,0,0-1.84,3.75c.63,1.71,2.53,2.94,4.13,3.57s5,.58,5.94.55c.17.51.33,1,.5,1.54.82,2.46,1.65,4.91,2.39,7.34.26.85.49,1.7.72,2.55-.25-.53-.47-1-.51-1-1.22-2-4.65-5.23-7.05-4.84a2.66,2.66,0,0,0-1.84,3.76c.64,1.7,2.54,2.93,4.13,3.56s4.7.58,5.78.55c.21.88.42,1.75.59,2.6.1.58.23,1.14.3,1.73l.24,1.72c.11,1.1.24,2.23.32,3.3.06.74.11,1.45.16,2.17-.25-.86-.78-2.52-.84-2.65a13.38,13.38,0,0,0-3.79-4.75,4.3,4.3,0,0,0-.32-.6c-1-1.52-3-2.18-4.32-1.16-1.88,1.41-1.41,5.91-.55,8.05.05.13.75,1.45,1.21,2.28-.34-.46-.66-.9-1-1.36-.69-.93-1.41-1.83-2.17-2.8l-1.16-1.39c-.38-.47-.84-.93-1.25-1.4-1-1.07-2.05-2.11-3.13-3.14.74-.52,3.33-2.42,4.07-3.82a6,6,0,0,0,.5-5.09,3.2,3.2,0,0,0-4.17-1.78c-2.1,1.08-2.31,5.53-1.76,7.74,0,.13.59,1.69.92,2.55-.66-.62-1.3-1.23-2-1.83-2-1.74-4-3.44-6-5.15L336.84,316c.26-.18,3.39-2.37,4.23-3.94a6,6,0,0,0,.5-5.08,3.21,3.21,0,0,0-4.17-1.79c-2.1,1.09-2.31,5.53-1.77,7.74,0,.17.86,2.41,1.09,3-1.35-1.15-2.69-2.32-4-3.52a58.87,58.87,0,0,1-4.91-5.12c.12-.08,3.4-2.34,4.26-4a6,6,0,0,0,.5-5.09,3.2,3.2,0,0,0-4.17-1.78c-2.1,1.08-2.31,5.53-1.77,7.74,0,.14.66,1.85,1,2.66l-.12.06a43.82,43.82,0,0,1-4-5.86c-.66-1.12-1.24-2.23-1.77-3.31.66-.35,3.66-2,4.6-3.34a5.76,5.76,0,0,0,1.06-4.94,3.28,3.28,0,0,0-4-2.22c-2.23.83-2.93,5.17-2.62,7.4,0,.12.32,1.35.55,2.24-.24-.49-.49-1-.7-1.47-.82-1.78-1.46-3.45-2-4.93-.31-.84-.58-1.61-.82-2.33.43-.71,2.13-3.6,2.29-5.27a6.65,6.65,0,0,0-1.39-5.13c-1.26-1.3-3.29-1.52-4.36-.21-1.48,1.82-.07,6.22,1.21,8.17.12.17,2.13,2.64,2.15,2.6l0,0c.22.7.46,1.44.74,2.25.53,1.49,1.14,3.18,1.92,5a59.52,59.52,0,0,0,2.79,5.72,43.71,43.71,0,0,0,3.94,6l.06.07c-.62-.45-2.39-1.66-2.53-1.74-2-1.1-6.49-2.09-8.12-.4-1.17,1.21-.75,3.24.65,4.39a6.4,6.4,0,0,0,5.16.89c1.78-.36,4.78-2.74,5-2.93a61,61,0,0,0,5,5.4c1,1,2.08,2,3.15,2.93l-1.11-.75c-2-1.1-6.49-2.09-8.12-.4-1.17,1.21-.75,3.24.65,4.39a6.36,6.36,0,0,0,5.16.89c1.6-.33,4.21-2.29,4.89-2.83.41.37.82.74,1.24,1.1,2,1.75,4,3.49,5.89,5.24.68.62,1.32,1.26,2,1.89l-1-.65c-2-1.1-6.48-2.09-8.11-.4-1.18,1.21-.75,3.24.65,4.39a6.34,6.34,0,0,0,5.15.89c1.53-.31,4-2.1,4.77-2.73.65.66,1.29,1.33,1.89,2,.4.46.81.88,1.19,1.37l1.13,1.41c.69.92,1.41,1.87,2.07,2.78.46.63.88,1.24,1.31,1.85-.66-.62-2-1.82-2.1-1.9-1.88-1.39-6.2-3-8.1-1.64-1.37,1-1.24,3,0,4.36a6.65,6.65,0,0,0,5.05,1.66c1.8-.08,5.06-1.84,5.46-2.06.71,1,1.39,2,2,3,2.19,3.27,3.9,6.07,5.07,8l.12.2,1.52-.56-.24-.39c-1.23-2-3-4.77-5.29-8-.72-1-1.51-2.12-2.33-3.24a24.39,24.39,0,0,0,2.36-2.65,22.41,22.41,0,0,0,5.84,1.36c.08,1.19.14,2.34.19,3.42.15,3.75.14,6.87.1,9V347l1.67-.62c0-2.17-.09-5.11-.31-8.59-.07-1.2-.17-2.49-.29-3.81.46-.06,4.24-.61,5.66-1.59s2.66-2.41,2.61-4.16a3.37,3.37,0,0,0-3.23-3.31c-2.46,0-4.52,3.78-4.93,5.92,0,.12-.13,1.53-.18,2.43,0-.54-.09-1.07-.15-1.62-.11-1.1-.25-2.19-.4-3.37l-.27-1.72c-.08-.58-.24-1.18-.35-1.78-.3-1.38-.67-2.77-1.07-4.17,1,0,4.31,0,5.75-.68s3-1.94,3.26-3.65a3.35,3.35,0,0,0-2.75-3.71c-2.48-.33-5.12,3-5.85,5-.05.13-.4,1.65-.58,2.49-.25-.84-.49-1.68-.77-2.52-.8-2.44-1.68-4.89-2.55-7.33-.27-.75-.52-1.5-.78-2.25.33,0,4.34.07,6-.68,1.43-.66,3-1.93,3.25-3.64a3.35,3.35,0,0,0-2.75-3.71c-2.48-.34-5.12,3-5.85,5-.05.15-.56,2.34-.66,2.9-.58-1.65-1.13-3.29-1.62-4.93a56.74,56.74,0,0,1-1.57-6.7c.16,0,4.35.09,6-.67,1.43-.67,3-1.94,3.25-3.65a3.34,3.34,0,0,0-2.75-3.71c-2.48-.34-5.12,3-5.85,5-.05.13-.43,1.8-.6,2.6l-.14,0a38.71,38.71,0,0,1-.38-6.78c0-1.23.12-2.41.24-3.54.79.09,4.39.5,6,0s3.26-1.56,3.67-3.22a3.3,3.3,0,0,0-2.36-3.94c-2.45-.61-5.48,2.35-6.43,4.25-.05.1-.46,1.22-.74,2,.06-.51.11-1,.18-1.53.25-1.83.59-3.48.91-4.94.19-.82.38-1.57.56-2.26.77-.3,3.89-1.58,4.95-2.78a5.6,5.6,0,0,0,1.59-4.74A3.31,3.31,0,0,0,360.3,265.69Z" style="fill:#FF725E"></path><path d="M315.45,298.91c1.94.14,5.82-1.42,5.82-1.42S319.18,295.1,319,295c-1.73-1.58-5.89-3.69-8-2.55-1.49.82-1.6,2.83-.51,4.28A6.84,6.84,0,0,0,315.45,298.91Z" style="fill:#FF725E"></path><g style="opacity:0.30000000000000004"><path d="M355.5,285s-.55-3-.61-3.2c-.69-2.18-3.24-6.14-5.73-6.41a2.59,2.59,0,0,0-2.82,3c.18,1.76,1.75,3.42,3.16,4.44C351.16,284.06,355.49,285,355.5,285Z" style="fill:#fff"></path><path d="M360.3,265.69c-2.33.57-3.49,4.76-3.42,7,0,.19.45,3.22.49,3.2h0c-.18.66-.38,1.37-.57,2.15-.36,1.45-.74,3.09-1,4.92a49.06,49.06,0,0,0-.66,6,37.83,37.83,0,0,0,.23,6.83s0,.06,0,.08c-.3-.69-1.22-2.61-1.31-2.75-1.21-2-4.65-5.24-7-4.85A2.66,2.66,0,0,0,345.2,292c.63,1.71,2.53,2.94,4.13,3.57,1.79.71,5.79.56,6.11.54a56.23,56.23,0,0,0,1.47,6.94c.37,1.34.78,2.68,1.21,4-.29-.59-.54-1.12-.59-1.19-1.21-2-4.65-5.24-7-4.84a2.65,2.65,0,0,0-1.84,3.75c.63,1.71,2.53,2.94,4.13,3.57s5,.58,5.94.55c.17.51.33,1,.5,1.54.82,2.46,1.65,4.91,2.39,7.34.26.85.49,1.7.72,2.55-.25-.53-.47-1-.51-1-1.22-2-4.65-5.23-7.05-4.84a2.66,2.66,0,0,0-1.84,3.76c.64,1.7,2.54,2.93,4.13,3.56s4.7.58,5.78.55c.21.88.42,1.75.59,2.6.1.58.23,1.14.3,1.73l.24,1.72c.11,1.1.24,2.23.32,3.3.06.74.11,1.45.16,2.17-.25-.86-.78-2.52-.84-2.65a13.38,13.38,0,0,0-3.79-4.75,4.3,4.3,0,0,0-.32-.6c-1-1.52-3-2.18-4.32-1.16-1.88,1.41-1.41,5.91-.55,8.05.05.13.75,1.45,1.21,2.28-.34-.46-.66-.9-1-1.36-.69-.93-1.41-1.83-2.17-2.8l-1.16-1.39c-.38-.47-.84-.93-1.25-1.4-1-1.07-2.05-2.11-3.13-3.14.74-.52,3.33-2.42,4.07-3.82a6,6,0,0,0,.5-5.09,3.2,3.2,0,0,0-4.17-1.78c-2.1,1.08-2.31,5.53-1.76,7.74,0,.13.59,1.69.92,2.55-.66-.62-1.3-1.23-2-1.83-2-1.74-4-3.44-6-5.15L336.84,316c.26-.18,3.39-2.37,4.23-3.94a6,6,0,0,0,.5-5.08,3.21,3.21,0,0,0-4.17-1.79c-2.1,1.09-2.31,5.53-1.77,7.74,0,.17.86,2.41,1.09,3-1.35-1.15-2.69-2.32-4-3.52a58.87,58.87,0,0,1-4.91-5.12c.12-.08,3.4-2.34,4.26-4a6,6,0,0,0,.5-5.09,3.2,3.2,0,0,0-4.17-1.78c-2.1,1.08-2.31,5.53-1.77,7.74,0,.14.66,1.85,1,2.66l-.12.06a43.82,43.82,0,0,1-4-5.86c-.66-1.12-1.24-2.23-1.77-3.31.66-.35,3.66-2,4.6-3.34a5.76,5.76,0,0,0,1.06-4.94,3.28,3.28,0,0,0-4-2.22c-2.23.83-2.93,5.17-2.62,7.4,0,.12.32,1.35.55,2.24-.24-.49-.49-1-.7-1.47-.82-1.78-1.46-3.45-2-4.93-.31-.84-.58-1.61-.82-2.33.43-.71,2.13-3.6,2.29-5.27a6.65,6.65,0,0,0-1.39-5.13c-1.26-1.3-3.29-1.52-4.36-.21-1.48,1.82-.07,6.22,1.21,8.17.12.17,2.13,2.64,2.15,2.6l0,0c.22.7.46,1.44.74,2.25.53,1.49,1.14,3.18,1.92,5a59.52,59.52,0,0,0,2.79,5.72,43.71,43.71,0,0,0,3.94,6l.06.07c-.62-.45-2.39-1.66-2.53-1.74-2-1.1-6.49-2.09-8.12-.4-1.17,1.21-.75,3.24.65,4.39a6.4,6.4,0,0,0,5.16.89c1.78-.36,4.78-2.74,5-2.93a61,61,0,0,0,5,5.4c1,1,2.08,2,3.15,2.93l-1.11-.75c-2-1.1-6.49-2.09-8.12-.4-1.17,1.21-.75,3.24.65,4.39a6.36,6.36,0,0,0,5.16.89c1.6-.33,4.21-2.29,4.89-2.83.41.37.82.74,1.24,1.1,2,1.75,4,3.49,5.89,5.24.68.62,1.32,1.26,2,1.89l-1-.65c-2-1.1-6.48-2.09-8.11-.4-1.18,1.21-.75,3.24.65,4.39a6.34,6.34,0,0,0,5.15.89c1.53-.31,4-2.1,4.77-2.73.65.66,1.29,1.33,1.89,2,.4.46.81.88,1.19,1.37l1.13,1.41c.69.92,1.41,1.87,2.07,2.78.46.63.88,1.24,1.31,1.85-.66-.62-2-1.82-2.1-1.9-1.88-1.39-6.2-3-8.1-1.64-1.37,1-1.24,3,0,4.36a6.65,6.65,0,0,0,5.05,1.66c1.8-.08,5.06-1.84,5.46-2.06.71,1,1.39,2,2,3,2.19,3.27,3.9,6.07,5.07,8l.12.2,1.52-.56-.24-.39c-1.23-2-3-4.77-5.29-8-.72-1-1.51-2.12-2.33-3.24a24.39,24.39,0,0,0,2.36-2.65,22.41,22.41,0,0,0,5.84,1.36c.08,1.19.14,2.34.19,3.42.15,3.75.14,6.87.1,9V347l1.67-.62c0-2.17-.09-5.11-.31-8.59-.07-1.2-.17-2.49-.29-3.81.46-.06,4.24-.61,5.66-1.59s2.66-2.41,2.61-4.16a3.37,3.37,0,0,0-3.23-3.31c-2.46,0-4.52,3.78-4.93,5.92,0,.12-.13,1.53-.18,2.43,0-.54-.09-1.07-.15-1.62-.11-1.1-.25-2.19-.4-3.37l-.27-1.72c-.08-.58-.24-1.18-.35-1.78-.3-1.38-.67-2.77-1.07-4.17,1,0,4.31,0,5.75-.68s3-1.94,3.26-3.65a3.35,3.35,0,0,0-2.75-3.71c-2.48-.33-5.12,3-5.85,5-.05.13-.4,1.65-.58,2.49-.25-.84-.49-1.68-.77-2.52-.8-2.44-1.68-4.89-2.55-7.33-.27-.75-.52-1.5-.78-2.25.33,0,4.34.07,6-.68,1.43-.66,3-1.93,3.25-3.64a3.35,3.35,0,0,0-2.75-3.71c-2.48-.34-5.12,3-5.85,5-.05.15-.56,2.34-.66,2.9-.58-1.65-1.13-3.29-1.62-4.93a56.74,56.74,0,0,1-1.57-6.7c.16,0,4.35.09,6-.67,1.43-.67,3-1.94,3.25-3.65a3.34,3.34,0,0,0-2.75-3.71c-2.48-.34-5.12,3-5.85,5-.05.13-.43,1.8-.6,2.6l-.14,0a38.71,38.71,0,0,1-.38-6.78c0-1.23.12-2.41.24-3.54.79.09,4.39.5,6,0s3.26-1.56,3.67-3.22a3.3,3.3,0,0,0-2.36-3.94c-2.45-.61-5.48,2.35-6.43,4.25-.05.1-.46,1.22-.74,2,.06-.51.11-1,.18-1.53.25-1.83.59-3.48.91-4.94.19-.82.38-1.57.56-2.26.77-.3,3.89-1.58,4.95-2.78a5.6,5.6,0,0,0,1.59-4.74A3.31,3.31,0,0,0,360.3,265.69Z" style="fill:#fff"></path><path d="M315.45,298.91c1.94.14,5.82-1.42,5.82-1.42S319.18,295.1,319,295c-1.73-1.58-5.89-3.69-8-2.55-1.49.82-1.6,2.83-.51,4.28A6.84,6.84,0,0,0,315.45,298.91Z" style="fill:#fff"></path></g><path d="M356.49,339.35s11.76-27,18.35-25.07-11.29,44-11.29,44,20.7-36.73,34.82-35.15-5.18,42.58-23.06,55c0,0,28.23-27.25,44.7-18.83s-32.94,33.71-32.94,33.71,28.7-5.83,25.41.79-41.23,5.88-41.23,5.88l-7.92-.66-.06,5.22.06-5.22s-34-5.28-37.42-26c-1.37-8.28,22.58,8.7,22.58,8.7S321.67,349,326.85,338.5s28.23,23.3,28.23,23.3-18.82-42-15.06-48.54S356.49,339.35,356.49,339.35Z" style="fill:#FF725E"></path><g style="opacity:0.30000000000000004"><path d="M356.49,339.35s11.76-27,18.35-25.07-11.29,44-11.29,44,20.7-36.73,34.82-35.15-5.18,42.58-23.06,55c0,0,28.23-27.25,44.7-18.83s-32.94,33.71-32.94,33.71,28.7-5.83,25.41.79-41.23,5.88-41.23,5.88l-7.92-.66-.06,5.22.06-5.22s-34-5.28-37.42-26c-1.37-8.28,22.58,8.7,22.58,8.7S321.67,349,326.85,338.5s28.23,23.3,28.23,23.3-18.82-42-15.06-48.54S356.49,339.35,356.49,339.35Z" style="fill:#fff"></path></g><path d="M352.73,340.43c10.35,31.74,10.35,53.38,10.35,53.38s-12.24-.9-24.94-11.73" style="fill:none;stroke:#263238;stroke-linecap:round;stroke-linejoin:round"></path><path d="M357.9,357.48a166.58,166.58,0,0,1,8.47-25.88" style="fill:none;stroke:#263238;stroke-linecap:round;stroke-linejoin:round"></path><path d="M388.49,343l-26.35,36.1s-17.88-17.06-24-26.21" style="fill:none;stroke:#263238;stroke-linecap:round;stroke-linejoin:round"></path><path d="M362.61,388.58s27.76-10.06,39.05-16.33" style="fill:none;stroke:#263238;stroke-linecap:round;stroke-linejoin:round"></path><path d="M363.08,393.81s-.18,8.73-.11,12.29" style="fill:none;stroke:#263238;stroke-linecap:round;stroke-linejoin:round"></path></g><g id="freepik--character-2--inject-3"><path d="M416.54,273.43,215.2,266a6.38,6.38,0,0,1-6.14-6.37V113.5a6.37,6.37,0,0,1,6.14-6.37l201.34-7.45a6.38,6.38,0,0,1,6.61,6.37v161A6.37,6.37,0,0,1,416.54,273.43Z" style="fill:#263238;stroke:#263238;stroke-linecap:round;stroke-linejoin:round;stroke-width:1.5097800000000001px"></path><polygon points="414.4 266.22 214.47 259.02 214.47 114.98 414.4 107.78 414.4 266.22" style="fill:#fff"></polygon><g style="clip-path:url(#freepik--clip-path--inject-3)"><path d="M298.29,123.44s-6-3.33-8.38,2.76-1,11-7.21,19.4-4.52,19,2.18,25.92,14.75,7.62,20.78,7.08,6.2,1,11.56,1.76,5.36,1.28,9.22-.71,8-3.44,9.88-14.07-6.87-28-15.91-36.33-13.07-8-15.75-7a13.29,13.29,0,0,0-4.7,3.45Z" style="fill:#263238;stroke:#263238;stroke-linecap:round;stroke-linejoin:round"></path><path d="M298.23,174.87a10.88,10.88,0,0,1-2.29-.08" style="fill:none;stroke:#fff;stroke-linecap:round;stroke-linejoin:round;stroke-width:0.75px"></path><path d="M296,134.36s-5.34.89-7.12,10.24-.45,15.13-1.34,20.48c-.58,3.5,1.52,6.81,4.79,8.55" style="fill:none;stroke:#fff;stroke-linecap:round;stroke-linejoin:round;stroke-width:0.75px"></path><path d="M282.65,164.12A7.1,7.1,0,0,0,284,166" style="fill:none;stroke:#fff;stroke-linecap:round;stroke-linejoin:round;stroke-width:0.75px"></path><path d="M296.44,130.8a10.12,10.12,0,0,0-9.34,7.57c-2.23,7.56.44,8-3.12,15.13a15.78,15.78,0,0,0-2,7.79" style="fill:none;stroke:#fff;stroke-linecap:round;stroke-linejoin:round;stroke-width:0.75px"></path><path d="M294.46,152.07s-4.52-4.25-5-.75a10.26,10.26,0,0,0,3.68,8.9c2.18,1.62,3.52,1,3.52,1Z" style="fill:#fff;stroke:#263238;stroke-linecap:round;stroke-linejoin:round"></path><polygon points="212.51 239.49 228.7 239.49 228.7 150.86 243.34 150.86 243.34 217.14 254.9 217.14 254.9 176.29 264.15 176.29 264.15 132.37 272.63 132.37 272.63 205.58 278.79 205.58 278.79 176.29 284.96 176.29 284.96 221.94 297.29 221.94 297.29 183.23 346.61 183.23 346.61 220.99 359.71 220.99 359.71 130.82 365.1 130.82 365.1 167.05 373.58 167.05 373.58 113.1 380.52 113.1 380.52 203.27 399.01 203.27 399.01 219.45 406.72 219.45 406.72 147.78 419.82 147.78 419.82 272.63 212.51 272.63 212.51 239.49" style="fill:#FF725E"></polygon><polygon points="212.51 239.49 228.7 239.49 228.7 150.86 243.34 150.86 243.34 217.14 254.9 217.14 254.9 176.29 264.15 176.29 264.15 132.37 272.63 132.37 272.63 205.58 278.79 205.58 278.79 176.29 284.96 176.29 284.96 221.94 297.29 221.94 297.29 183.23 346.61 183.23 346.61 220.99 359.71 220.99 359.71 130.82 365.1 130.82 365.1 167.05 373.58 167.05 373.58 113.1 380.52 113.1 380.52 203.27 399.01 203.27 399.01 219.45 406.72 219.45 406.72 147.78 419.82 147.78 419.82 272.63 212.51 272.63 212.51 239.49" style="fill:#fff;opacity:0.7000000000000001"></polygon><path d="M319.07,166.55s-2,8.44.5,14.1,8.88,8.49,13.91,10.42,14.41-.95,15.08,7.3-.17,24.12.84,32.72.83,14.45-.84,20.06-7.88,10.16-7.88,10.16l-8.88-8.66s4.86-10.31,5.2-15.66-3.52.16-4.86,2.77,1.34,16.16,1.34,16.16-6.71,14.24-12.07,17.65-17.09,0-21.45-4.6-10.72-16.63-10.55-20,4.56-11.55,3.35-12.74a25,25,0,0,1-4.69-7.44s-1.34,4.46-.51,8a92.5,92.5,0,0,0,3.52,10.06,7.89,7.89,0,0,0-5,2.6l-5.37,5.42s-5.36-5.46-6.87-11.07.67-11.86.67-24.1-1.84-21.87,1.34-26.24,11.57-1.59,18.44-3.59,9.55-4.88,11.06-9.66a19.32,19.32,0,0,0,1-8S317.05,168.62,319.07,166.55Z" style="fill:#FF725E;stroke:#263238;stroke-linecap:round;stroke-linejoin:round"></path><path d="M294.75,189.77c6.5-2,9.1-4.84,10.58-9.51a19.32,19.32,0,0,0,1-8s10.72-3.65,12.74-5.72c0,0-2,8.44.5,14.1,1.86,4.18,5.82,6.81,9.79,8.69-2.14,3.64-8,11.62-18.34,11.49C302.09,200.71,297.18,194.77,294.75,189.77Z" style="fill:#fff;stroke:#263238;stroke-linecap:round;stroke-linejoin:round"></path><path d="M302.31,136s4.86-6.62,10.39-4.33,12.9,12,12.9,23.44-10.53,20.51-17.43,20.73c-3.73.12-11.05-9.14-13.4-16.63s-1.28-16.83.22-19.77A6.52,6.52,0,0,1,302.31,136Z" style="fill:#fff;stroke:#263238;stroke-linecap:round;stroke-linejoin:round"></path><path d="M302.31,136s4.19-3,6.53.33,7.38,14.45,11.73,26.23,2.18,17,1.85,18,8.21,1.09,14.41-7.64,6-15.95,1.84-25.72S325.6,118.12,315,116.41s-16.08,4.71-16.75,7Z" style="fill:#263238;stroke:#263238;stroke-linecap:round;stroke-linejoin:round"></path><path d="M331.67,175.51a6.14,6.14,0,0,0,5.16-2.53" style="fill:none;stroke:#fff;stroke-linecap:round;stroke-linejoin:round;stroke-width:0.75px"></path><path d="M302.68,129.47s0-4.46,6.23-1.79S322.71,170,328.05,174" style="fill:none;stroke:#fff;stroke-linecap:round;stroke-linejoin:round;stroke-width:0.75px"></path><path d="M311.08,121.27c3.44-.93,7.64-.91,10.74,2.85,6.23,7.57,6.23,32.94,9.79,40.06s7.57.9,7.57.9" style="fill:none;stroke:#fff;stroke-linecap:round;stroke-linejoin:round;stroke-width:0.75px"></path><path d="M304.9,124.12a21.89,21.89,0,0,1,3.34-1.83" style="fill:none;stroke:#fff;stroke-linecap:round;stroke-linejoin:round;stroke-width:0.75px"></path><path d="M306.16,149.14s.51,4.88,0,6.87-2.34,1.55-.67,2.81,4.19-1,4.19-1" style="fill:none;stroke:#263238;stroke-linecap:round;stroke-linejoin:round"></path><path d="M300.47,150.86c0,1.11.37,2,.83,2s.84-.86.84-2-.37-2-.84-2.05S300.47,149.75,300.47,150.86Z" style="fill:#263238"></path><path d="M312,151.11c0,1.11.37,2,.84,2s.83-.86.83-2-.37-2-.83-2.05S312,150,312,151.11Z" style="fill:#263238"></path><path d="M288.07,228.82s-1.18-.56-.17-6.88,1.84-10.13,1.51-11.48a54.37,54.37,0,0,0-2-5.13" style="fill:none;stroke:#263238;stroke-linecap:round;stroke-linejoin:round"></path><path d="M336.32,234.61a11.28,11.28,0,0,0,2.85-8.23c-.33-5-2.51-10.68-2.34-11.85s2.85-5.72,2.85-5.72" style="fill:none;stroke:#263238;stroke-linecap:round;stroke-linejoin:round"></path><path d="M333.81,248.23s5.53-.06,8.71,2.45a8.87,8.87,0,0,1,3.36,6,98.66,98.66,0,0,0-11.06,12.51c-4,5.83-14.25,11.68-14.25,11.68s2.18-2.07-2.68.7-6.36,3.7-6.36,3.7l-10.06-.67s.5-6.18,5.7-8.09,11.73-2.43,12.23-2.57,11.23-19,12.74-22l1.5-2.94Z" style="fill:#fff;stroke:#263238;stroke-linecap:round;stroke-linejoin:round"></path><path d="M291.08,246.9S302,262,306,266.09s4,4.56,5,4.61,10.06,1,11.4,3.26,4.19,10.1,4.19,10.1l-13.41-.18a8.54,8.54,0,0,0-2.18-4c-1.67-1.6-4-2.22-5.86-4.66s-2.52-3.48-2.52-3.48-17.93-12-21.95-16.86C280.69,254.92,285.39,245.44,291.08,246.9Z" style="fill:#fff;stroke:#263238;stroke-linecap:round;stroke-linejoin:round"></path><line x1="304.82" y1="196.15" x2="302.64" y2="201.57" style="fill:none;stroke:#263238;stroke-linecap:round;stroke-linejoin:round;stroke-width:3.14175px"></line><path d="M298.07,146.67s1.35-4.94,5.85-2.83" style="fill:none;stroke:#263238;stroke-linecap:round;stroke-linejoin:round"></path><path d="M309.28,144.16s3.08-3.36,6.81,1.44" style="fill:none;stroke:#263238;stroke-linecap:round;stroke-linejoin:round"></path><path d="M302.69,163s4.17,3.28,8.57.21" style="fill:none;stroke:#263238;stroke-linecap:round;stroke-linejoin:round"></path></g><polygon points="414.4 266.22 214.47 259.02 214.47 114.98 414.4 107.78 414.4 266.22" style="fill:none;stroke:#263238;stroke-linecap:round;stroke-linejoin:round"></polygon><rect x="384.2" y="250.89" width="23.92" height="11.06" rx="4.38" style="fill:#263238;stroke:#263238;stroke-linecap:round;stroke-linejoin:round;stroke-width:1.6425400000000001px"></rect><path d="M387.77,253.21h1.17v5.43h2.64v1h-3.81Z" style="fill:#fff"></path><path d="M393.63,253.21v6.41h-1.17v-6.41Z" style="fill:#fff"></path><path d="M396.44,259.62l-2.08-6.41h1.28l.87,2.91c.25.81.46,1.56.63,2.34h0a23.93,23.93,0,0,1,.66-2.32l.93-2.93H400l-2.21,6.41Z" style="fill:#fff"></path><path d="M404.27,256.78h-2.41v1.88h2.7v1h-3.87v-6.41h3.73v1h-2.56v1.66h2.41Z" style="fill:#fff"></path></g><g id="freepik--character-1--inject-3"><ellipse cx="162.31" cy="422.99" rx="43.78" ry="10.21" style="fill:#FF725E"></ellipse><ellipse cx="162.31" cy="422.99" rx="43.78" ry="10.21" style="fill:#fff;opacity:0.5"></ellipse><path d="M160.79,408.28s16.3,5.35,18.42,5.73,1.49,2.61-1,4.23-6.22,2.11-15.06.87-10.45-2.86-11.07-2.62-2.12,1.5-4.23.5-3.12-5-1-6.84S160.79,408.28,160.79,408.28Z" style="fill:#FF725E;stroke:#263238;stroke-linecap:round;stroke-linejoin:round"></path><path d="M180.48,415.26c-4.8,3.83-17.41,2.53-23.7.79a27.69,27.69,0,0,0-10.58-.83,3.66,3.66,0,0,0,1.65,1.77c2.11,1,3.61-.25,4.23-.5s2.24,1.37,11.07,2.62,12.57.74,15.06-.87C179.67,417.29,180.48,416.13,180.48,415.26Z" style="fill:#263238;stroke:#263238;stroke-linecap:round;stroke-linejoin:round"></path><path d="M149.46,412.14A72.68,72.68,0,0,0,159.79,420c4.61,2.61,6.23,4.35,4,7s-4,2-13.2,0a43.51,43.51,0,0,1-14.68-5.85s-.37,1.24-3.36.37-2.74-3.23-2-5.22S140.88,408,149.46,412.14Z" style="fill:#FF725E;stroke:#263238;stroke-linecap:round;stroke-linejoin:round"></path><path d="M163.78,427a5.45,5.45,0,0,0,.75-1.15,9.62,9.62,0,0,1-4.4,1.19c-3.65.05-15.19-3.57-19.88-6.25-3.85-2.2-8.61-2.14-10.18-2.05a2.92,2.92,0,0,0,2.47,2.78c3,.87,3.36-.37,3.36-.37A43.51,43.51,0,0,0,150.58,427C159.79,428.94,161.54,429.56,163.78,427Z" style="fill:#263238;stroke:#263238;stroke-linecap:round;stroke-linejoin:round"></path><path d="M177.22,280.85s-1,14.93-4.48,37.58-12.45,39.57-13,48.16-.25,25.51-.25,29,1.12,2.36,1.25,5.47,0,7.22,0,7.22a43.15,43.15,0,0,1-6.35,2.49,30.75,30.75,0,0,1-3.73.75s.5,1-2.12-5.35-3.73-17.43-3.73-28.25,4.73-30.12,6.47-41.07,6.72-39,7.22-44.8a59.4,59.4,0,0,1,2.36-11.58,33.77,33.77,0,0,0,9.46,0C175.35,279.73,177.22,280.85,177.22,280.85Z" style="fill:#263238;stroke:#263238;stroke-linecap:round;stroke-linejoin:round"></path><path d="M126.32,279.11s2.86,53.63,1,62.34-3,10.21-2.86,17.55,1.37,36.09,2.86,44.55,3,8.84,2.74,11.08.5,3.86,1,4.23.37,1.87,7.21-.62a136.3,136.3,0,0,0,12.82-5.48,50,50,0,0,0,.38-7.84c0-5.85-3-10.2-3-14.68s-1-24.64,2.74-38.71,8.58-44.3,9.83-53.14,1.74-13.81,1.74-13.81a75.9,75.9,0,0,1-19.54-2.86c-10.58-3-17.17-4.61-17.42-3.73A.86.86,0,0,0,126.32,279.11Z" style="fill:#263238;stroke:#263238;stroke-linecap:round;stroke-linejoin:round"></path><path d="M153.05,407.4c-.09,1.46-.09,2.48-.09,2.48" style="fill:none;stroke:#fff;stroke-linecap:round;stroke-linejoin:round;stroke-width:0.75px"></path><path d="M162.87,293.68s-5.29,27.62-8.3,47.23-8.27,39.2-2.25,58.13a9.27,9.27,0,0,1,1,5.33" style="fill:none;stroke:#fff;stroke-linecap:round;stroke-linejoin:round;stroke-width:0.75px"></path><path d="M218.78,210.66a70,70,0,0,1,3.11-9.33c1.37-2.74,5-3.86,7.22-5.6s3.24-4.61,4.11-3.24.25,3.86-.63,5-2,1.87-2.61,2.74l-.62.87s8.71,2,10.58,2.49,7.21-.25,5.22,2a22.17,22.17,0,0,1-11.57,6,75.71,75.71,0,0,0-9.46,2.24l-2.74,2.49Z" style="fill:#fff;stroke:#263238;stroke-linecap:round;stroke-linejoin:round"></path><path d="M215.42,212.28s3-2.62,3-2.24,5.22,8.71,5.22,8.71l-4.1,2.86Z" style="fill:#fff;stroke:#263238;stroke-linecap:round;stroke-linejoin:round"></path><path d="M178.83,184.15c.38.63,3.11,4.36,4.86,15.93s7.09,26.76,7.09,26.76l24.52-15.06,5.35,11.2s-21.53,21.53-28,26.13-10.21,4.36-13.32,1.75-2.24-44.56-2.24-49.91S178.83,184.15,178.83,184.15Z" style="fill:#FF725E;stroke:#263238;stroke-linecap:round;stroke-linejoin:round"></path><path d="M246.53,202.7s.13-9-1-7.22-1.12,5.1-1.12,7.09S246.53,202.7,246.53,202.7Z" style="fill:#fff;stroke:#263238;stroke-linecap:round;stroke-linejoin:round"></path><path d="M245.91,200.08s2.49-3.61,2.61-1.49-1.24,6-2.73,7.09a4.7,4.7,0,0,1-2.49,1.12Z" style="fill:#fff;stroke:#263238;stroke-linecap:round;stroke-linejoin:round"></path><path d="M241.06,204.06s3.85-6.59,4.35-5.1-.74,6.22-2.11,7.84a9.18,9.18,0,0,1-3.61,2.37Z" style="fill:#fff;stroke:#263238;stroke-linecap:round;stroke-linejoin:round"></path><path d="M235.46,208.92c.37-.38,6.22-13.19,6.47-10.21s-1.5,9.46-2.24,10.46-4.61,1.61-4.61,1.61" style="fill:#fff;stroke:#263238;stroke-linecap:round;stroke-linejoin:round"></path><path d="M223,210.41s.13-2.24,3.24-3.23,5-.25,5.22.12" style="fill:none;stroke:#263238;stroke-linecap:round;stroke-linejoin:round"></path><path d="M139.13,169.22s-14.31,9-18.41,11.08-4.48,2.61-4.61,5.35,7.34,61.1,7.34,61.1L118.1,280.6s28.25,10.08,34.1,10.33,10.21.25,10.21.25l3-7.35,1.62,7s5.1-1.86,9.71-4,10.2-7.71,10.58-7.59S180.82,246,180.82,246s.63-56-1-60.73-20.66-12.69-20.66-12.69a114,114,0,0,0-11.82-3C143.24,169,140.26,168.6,139.13,169.22Z" style="fill:#FF725E;stroke:#263238;stroke-linecap:round;stroke-linejoin:round"></path><path d="M147.35,169.59c-4.11-.62-7.1-1-8.21-.37l-.66.41,14.22,48.25,5.1,7.71L161.91,214s1.37-18.17,1.37-26.13a130.5,130.5,0,0,0-.85-13.87c-2-.89-3.26-1.44-3.26-1.44A114,114,0,0,0,147.35,169.59Z" style="fill:#fff;stroke:#263238;stroke-linecap:round;stroke-linejoin:round"></path><path d="M148.59,183.41l6.6,8.21-2.49,26.26,5.1,7.71s3.61-11.69,3.61-11.32-4.23-24-4.23-24l4.23-7.59-4.6-8.59Z" style="fill:#263238;stroke:#263238;stroke-linecap:round;stroke-linejoin:round"></path><polygon points="157.3 178.3 163.28 187.89 163.03 171.83 158.67 167.6 157.3 178.3" style="fill:#fff;stroke:#263238;stroke-linecap:round;stroke-linejoin:round"></polygon><path d="M143.37,148.81s.12,19.66.12,20.53,12.94,15.06,12.94,15.06l5.11-21.9s-9.71-3.11-12.45-7.09S144,147.94,143.37,148.81Z" style="fill:#fff;stroke:#263238;stroke-linecap:round;stroke-linejoin:round"></path><polygon points="142.62 163.25 154.32 176.56 147.6 189.63 138.14 168.47 142.62 163.25" style="fill:#fff;stroke:#263238;stroke-linecap:round;stroke-linejoin:round"></polygon><polygon points="154.32 176.56 156.43 184.4 151.83 181.54 154.32 176.56" style="fill:#fff;stroke:#263238;stroke-linecap:round;stroke-linejoin:round"></polygon><path d="M163.28,223.35s-1.25,2.74-4.11,10S144.36,263.92,145,263.8s6.35-2.24,18.67-5.35,17.3-7.22,21.16-11.95,12.81-16.18,12.81-16.18-13.93.13-21.4-1.86A60.73,60.73,0,0,1,163.28,223.35Z" style="fill:#fff;stroke:#263238;stroke-linecap:round;stroke-linejoin:round;stroke-width:0.5px"></path><polygon points="138.39 256.83 138.7 256.4 141.83 252.13 137.38 250.92 138.39 256.83" style="fill:#fff;stroke:#263238;stroke-linecap:round;stroke-linejoin:round"></polygon><polygon points="135.03 257.33 136.98 255.98 134.55 254.97 135.03 257.33" style="fill:#FF725E;stroke:#263238;stroke-linecap:round;stroke-linejoin:round"></polygon><path d="M142.49,244.76l4.24.62s9.08-9,9.7-8.84,14.69,6.48,14.94,6.85a2,2,0,0,1,0,1.87l-.38.62s.87,2,.25,2.61a7.55,7.55,0,0,1-1.24,1s.25.49-.75,1.61a4.93,4.93,0,0,1-1.62,1.37,12.89,12.89,0,0,1-3.36.75c-1.74.13-7.09.25-9,.5s-3.61,1.74-6.72,1.74-5.47-1.74-6.47-1.74a21.67,21.67,0,0,1-3.61-.75S136.89,246.38,142.49,244.76Z" style="fill:#fff;stroke:#263238;stroke-linecap:round;stroke-linejoin:round"></path><line x1="157.8" y1="241.65" x2="170.99" y2="245.88" style="fill:none;stroke:#263238;stroke-linecap:round;stroke-linejoin:round"></line><line x1="157.43" y1="246.63" x2="170" y2="249.49" style="fill:none;stroke:#263238;stroke-linecap:round;stroke-linejoin:round"></line><line x1="157.18" y1="250.98" x2="168.38" y2="251.35" style="fill:none;stroke:#263238;stroke-linecap:round;stroke-linejoin:round"></line><path d="M138.51,242.52l4,2.24s-2,1-3.11,4.85a25.34,25.34,0,0,0-1,7.22l-5-2.24S131.42,245.63,138.51,242.52Z" style="fill:#fff;stroke:#263238;stroke-linecap:round;stroke-linejoin:round"></path><path d="M130.42,206.93,119.1,233.56l20.16,9.21s-3.49,4.6-4.23,7.84a17.64,17.64,0,0,0,0,6.72,78.12,78.12,0,0,1-20.29-4.73,85.21,85.21,0,0,1-18.91-10.21S113.75,188.14,115,184.9s2.86-2.49,4.73-1.74,8.59,7.84,9.46,14.18" style="fill:#FF725E;stroke:#263238;stroke-linecap:round;stroke-linejoin:round"></path><path d="M172.61,123.05s.5,6.72.5,20.28-1.62,21.28-6.6,21.41-16.8-2.61-19.78-5.6a16.45,16.45,0,0,1-3.86-7.59s-4,1-5.6-3.74.25-7.84,2.11-8.71,6.1.63,6.23-3.73-4.36-7.47-2-10.7,9.46-5.48,16.31-5.35a28.7,28.7,0,0,1,12.32,3.23Z" style="fill:#fff;stroke:#263238;stroke-linecap:round;stroke-linejoin:round"></path><path d="M168.26,137.61s2.61,7.22,2.36,8.34-7.22,1-7.22,1" style="fill:none;stroke:#263238;stroke-linecap:round;stroke-linejoin:round"></path><path d="M169,151.17a12.55,12.55,0,0,1-7.34-.49c-4-1.5-4.85-3.24-4.85-3.24" style="fill:none;stroke:#263238;stroke-linecap:round;stroke-linejoin:round"></path><line x1="157.68" y1="146.2" x2="155.69" y2="148.19" style="fill:none;stroke:#263238;stroke-linecap:round;stroke-linejoin:round"></line><path d="M157.41,148.36s1.14,4.56,2.76,6,3.73-2.86,3.73-2.86S158.65,149.6,157.41,148.36Z" style="fill:#263238;stroke:#263238;stroke-linecap:round;stroke-linejoin:round"></path><path d="M163.71,138c0,1.1-.42,2-.93,2s-.94-.89-.94-2,.42-2,.94-2S163.71,136.88,163.71,138Z" style="fill:#263238"></path><path d="M171.93,137.86c0,1.1-.42,2-.94,2s-.93-.89-.93-2,.42-2,.93-2S171.93,136.76,171.93,137.86Z" style="fill:#263238"></path><path d="M155.81,133s1.87-3.61,6.72-2.24" style="fill:none;stroke:#263238;stroke-linecap:round;stroke-linejoin:round"></path><path d="M168,131.39s2.49-2.37,4.35.37" style="fill:none;stroke:#263238;stroke-linecap:round;stroke-linejoin:round"></path><path d="M174,118a17.21,17.21,0,0,0-9.85-5.13c-12.42-2.18-30.39-1.59-28.7,18.32a43.11,43.11,0,0,0,2.24,10,3,3,0,0,1,3.49-.49c1.86,1.12,1.24,3.48,3.6,2.73s2-3.6,2-5.1,5.22-.37,5.22-3.11c0-3.18-5.52-5.52-3.11-8.89,1.86-2.6,5.95-1.13,8.35-.39,3.94,1.21,7.8,2.45,12,2.45,3.66,0,9-.1,7.67-5A12.72,12.72,0,0,0,174,118Z" style="fill:#263238;stroke:#263238;stroke-linecap:round;stroke-linejoin:round"></path><path d="M158.61,121.24s-4.58-3.15,0-1.43,2.9,3.75-1.7,4.59-10.33-3.45-14.06-2.59-5.73,4.87-5.73,4.87" style="fill:none;stroke:#fff;stroke-linecap:round;stroke-linejoin:round;stroke-width:0.75px"></path><path d="M137.69,134.13s4.24-2.88,11.18-2" style="fill:none;stroke:#fff;stroke-linecap:round;stroke-linejoin:round;stroke-width:0.75px"></path></g></svg>