<?xml version="1.0" encoding="utf-8"?>
<!-- Uploaded to: SVG Repo, www.svgrepo.com, Generator: SVG Repo Mixer Tools -->
<svg width="800px" height="800px" viewBox="0 0 256 256" xmlns="http://www.w3.org/2000/svg">
<defs>
<style>.cls-1{fill:#f97171;}.cls-2{fill:#f88;}.cls-3{fill:#2fb1ea;}.cls-4{fill:#ffffff;}.cls-5{fill:#6dd0fc;}.cls-6{fill:#a4ecff;}.cls-7{fill:#d4ffd4;}.cls-8{fill:#ffbdbd;}.cls-9{fill:#bbf1ff;}.cls-10{fill:#fff4c5;}</style>
</defs>
<title>business economic finance interprise company target</title>
<g id="Layer_2" data-name="Layer 2">
<circle class="cls-1" cx="111.06" cy="128" r="84"/>
<circle class="cls-2" cx="108.01" cy="124.96" r="78.67"/>
<path class="cls-3" d="M111.06,214a86,86,0,1,1,86-86A86.1,86.1,0,0,1,111.06,214Zm0-168a82,82,0,1,0,82,82A82.09,82.09,0,0,0,111.06,46Z"/>
<path class="cls-4" d="M111.06,192a64,64,0,1,1,64-64A64.07,64.07,0,0,1,111.06,192Z"/>
<path class="cls-3" d="M111.06,194a66,66,0,1,1,66-66A66.07,66.07,0,0,1,111.06,194Zm0-128a62,62,0,1,0,62,62A62.07,62.07,0,0,0,111.06,66Z"/>
<path class="cls-2" d="M111.06,172a44,44,0,1,1,44-44A44,44,0,0,1,111.06,172Z"/>
<path class="cls-3" d="M111.06,174a46,46,0,1,1,46-46A46.05,46.05,0,0,1,111.06,174Zm0-88a42,42,0,1,0,42,42A42,42,0,0,0,111.06,86Z"/>
<path class="cls-4" d="M111.06,152a24,24,0,1,1,24-24A24,24,0,0,1,111.06,152Z"/>
<path class="cls-3" d="M111.06,154a26,26,0,1,1,26-26A26,26,0,0,1,111.06,154Zm0-48a22,22,0,1,0,22,22A22,22,0,0,0,111.06,106Z"/>
<circle class="cls-2" cx="111.06" cy="128" r="4"/>
<path class="cls-3" d="M111.06,134a6,6,0,1,1,6-6A6,6,0,0,1,111.06,134Zm0-8a2,2,0,1,0,2,2A2,2,0,0,0,111.06,126Z"/>
<path class="cls-5" d="M226.94,112.52h-22.6a2,2,0,0,0-1,.29L188.08,122H138.57l2.07-3.56a2,2,0,0,0-2.49-2.86L112.3,126.15a2,2,0,0,0,0,3.7l25.85,10.56a2,2,0,0,0,2.49-2.86L138.57,134h49.51l15.23,9.19a2,2,0,0,0,1,.29h22.6a2,2,0,0,0,1.41-3.41L216.29,128l12.06-12.07A2,2,0,0,0,226.94,112.52Z"/>
<path class="cls-6" d="M226.94,112.52h-22.6a2,2,0,0,0-1,.29L188.08,122H138.57l2.07-3.56a2,2,0,0,0-2.49-2.86L112.3,126.15c-1.66.68,2.75-.83,4.41-.15l13.42,5.59a2,2,0,0,0,2.49-2.86l55.47-.38,15.23,9.19a2,2,0,0,0,1,.29h18.81a2,2,0,0,0,1.41-3.41L216.29,128l12.06-12.07A2,2,0,0,0,226.94,112.52Z"/>
<path class="cls-3" d="M226.94,145.48h-22.6a4,4,0,0,1-2.07-.58L187.53,136H142l.32.55a4,4,0,0,1-5,5.71L111.54,131.7a4,4,0,0,1,0-7.41l25.85-10.56a4,4,0,0,1,5,5.71L142,120h45.48l14.76-8.9a4,4,0,0,1,2.07-.58h22.6a4,4,0,0,1,2.83,6.83L219.12,128l10.65,10.65a4,4,0,0,1-2.83,6.83ZM138.57,132h49.51a2,2,0,0,1,1,.29l15.23,9.19h22.6l-12.06-12.07a2,2,0,0,1,0-2.83l12.06-12.07h-22.6l-15.23,9.19a2,2,0,0,1-1,.29H138.57a2,2,0,0,1-1.73-3l2.07-3.56L113.06,128l25.85,10.56L136.84,135a2,2,0,0,1,1.73-3Z"/>
<circle class="cls-7" cx="190.5" cy="188" r="5"/>
<circle class="cls-7" cx="170.5" cy="38" r="4"/>
<circle class="cls-7" cx="223.5" cy="209" r="3"/>
<circle class="cls-7" cx="20.5" cy="88" r="2"/>
<circle class="cls-7" cx="198.5" cy="46" r="1"/>
<circle class="cls-8" cx="126.5" cy="11" r="5"/>
<circle class="cls-8" cx="6.5" cy="124" r="4"/>
<circle class="cls-8" cx="234.5" cy="100" r="3"/>
<circle class="cls-8" cx="53.5" cy="214" r="2"/>
<circle class="cls-8" cx="232.5" cy="69" r="1"/>
<circle class="cls-9" cx="248.5" cy="130" r="5"/>
<circle class="cls-9" cx="59.5" cy="34" r="4"/>
<circle class="cls-9" cx="26.5" cy="184" r="3"/>
<circle class="cls-9" cx="167.5" cy="221" r="2"/>
<circle class="cls-9" cx="208.5" cy="83" r="1"/>
<circle class="cls-10" cx="138.5" cy="245" r="5"/>
<circle class="cls-10" cx="86.5" cy="235" r="4"/>
<circle class="cls-10" cx="195.5" cy="69" r="3"/>
<circle class="cls-10" cx="96.5" cy="18" r="2"/>
<circle class="cls-10" cx="24.5" cy="52" r="1"/>
</g>
</svg>